<?xml version="1.0" standalone="no"?>
<!DOCTYPE svg PUBLIC "-//W3C//DTD SVG 20010904//EN"
 "http://www.w3.org/TR/2001/REC-SVG-20010904/DTD/svg10.dtd">
<svg version="1.0" xmlns="http://www.w3.org/2000/svg"
 width="700.000000pt" height="700.000000pt" viewBox="0 0 700.000000 700.000000"
 preserveAspectRatio="xMidYMid meet">
<metadata>
Created by potrace 1.14, written by Peter Selinger 2001-2017
</metadata>
<g transform="translate(0.000000,700.000000) scale(0.100000,-0.100000)"
fill="#000000" stroke="none">
<path d="M3220 6810 c-1031 -98 -1920 -626 -2485 -1475 -297 -446 -469 -918
-537 -1475 -17 -137 -17 -583 0 -720 112 -916 534 -1675 1255 -2254 26 -21 47
-36 47 -33 0 2 -33 31 -72 63 -123 99 -269 237 -368 349 -52 58 -98 112 -102
118 -8 15 101 244 174 365 465 772 1242 1255 2148 1335 l135 12 22 155 c19
138 34 301 62 665 8 109 8 109 10 32 3 -174 41 -584 72 -783 l11 -71 97 -7
c662 -47 1286 -332 1756 -801 212 -212 380 -447 517 -723 77 -155 81 -164 67
-190 -25 -49 -381 -396 -499 -487 -63 -48 -167 -122 -231 -164 -152 -99 -164
-107 -104 -75 81 44 271 176 390 270 145 116 408 380 519 524 584 753 816
1642 675 2580 -163 1085 -897 2047 -1909 2505 -301 136 -617 225 -961 271
-137 18 -556 26 -689 14z m343 -1096 c126 -156 179 -363 157 -619 l-12 -131
41 -64 c23 -35 44 -75 48 -88 6 -24 -84 -282 -98 -282 -3 0 -9 36 -12 79 -5
84 -20 127 -50 145 -14 9 -20 7 -28 -6 -15 -26 -196 -26 -214 -1 -32 43 -75
-54 -75 -167 0 -28 -4 -50 -8 -50 -8 0 -112 269 -112 288 0 5 20 40 46 76 l45
67 -12 80 c-16 113 -6 303 21 404 12 44 37 109 56 145 41 78 131 193 147 187
7 -2 34 -30 60 -63z m1 -1046 c27 -38 20 -122 -17 -212 -17 -44 -37 -81 -44
-83 -15 -5 -74 148 -80 212 -4 41 -1 55 17 78 29 36 100 39 124 5z"/>
<path d="M1510 846 c0 -2 8 -10 18 -17 15 -13 16 -12 3 4 -13 16 -21 21 -21
13z"/>
<path d="M1550 816 c0 -2 14 -14 30 -26 17 -12 30 -19 30 -16 0 2 -13 14 -30
26 -16 12 -30 19 -30 16z"/>
<path d="M1860 616 c0 -3 9 -10 20 -16 11 -6 20 -8 20 -6 0 3 -9 10 -20 16
-11 6 -20 8 -20 6z"/>
<path d="M5098 599 c-21 -11 -38 -22 -38 -24 0 -3 18 4 40 15 22 11 40 23 40
25 0 7 0 7 -42 -16z"/>
<path d="M4980 535 c-36 -19 -61 -34 -57 -35 10 0 127 59 127 65 0 7 2 8 -70
-30z"/>
<path d="M4820 460 c-8 -5 -10 -10 -5 -10 6 0 17 5 25 10 8 5 11 10 5 10 -5 0
-17 -5 -25 -10z"/>
</g>
</svg>
