<svg width="568" height="412" viewBox="0 0 568 412" fill="none" xmlns="http://www.w3.org/2000/svg">
<g clip-path="url(#clip0_502_1620)">
<mask id="mask0_502_1620" style="mask-type:luminance" maskUnits="userSpaceOnUse" x="0" y="0" width="568" height="412">
<path d="M568 0.000976562H0V411.969H568V0.000976562Z" fill="white"/>
</mask>
<g mask="url(#mask0_502_1620)">
<mask id="mask1_502_1620" style="mask-type:luminance" maskUnits="userSpaceOnUse" x="8" y="2" width="551" height="408">
<path d="M8.84595 2.41504H558.742V409.554H8.84595V2.41504Z" fill="white"/>
</mask>
<g mask="url(#mask1_502_1620)">
<path d="M140.263 408.559H71.8786C71.4881 408.559 71.1714 408.242 71.1714 407.851C71.1714 407.461 71.4881 407.144 71.8786 407.144H140.263C140.653 407.144 140.97 407.461 140.97 407.851C140.97 408.242 140.653 408.559 140.263 408.559Z" fill="black"/>
<path d="M503.018 408.559H188.769C188.378 408.559 188.062 408.242 188.062 407.851C188.062 407.461 188.378 407.144 188.769 407.144H503.018C503.409 407.144 503.726 407.461 503.726 407.851C503.726 408.242 503.409 408.559 503.018 408.559Z" fill="black"/>
<path d="M108.088 336.143C108.088 336.143 115.849 318.632 127.077 304.672C138.304 290.711 150.418 283.708 150.418 283.708C150.418 283.708 151.76 299.993 134.552 317.326C117.344 334.658 108.088 336.143 108.088 336.143Z" fill="#ED3D2A"/>
<path d="M101.857 262.407C101.857 262.407 100.397 247.596 96.5208 239.3C92.6447 231.005 84.652 222.703 78.6694 220.87C78.6694 220.87 79.5502 229.517 85.1942 240.352C90.8384 251.187 101.911 262.794 101.911 262.794L101.857 262.407Z" fill="#ED3D2A"/>
<path d="M107.573 262.268C107.573 262.268 128.021 250.679 136.6 239.57C145.18 228.461 147.565 222.271 148.196 219.713C148.827 217.156 149.317 210.03 149.317 210.03C149.317 210.03 135.366 217.27 123.723 233.107C112.08 248.945 107.59 259.555 107.573 262.268Z" fill="#1A1A1A"/>
<path d="M111.467 287.776C111.467 287.776 133.805 280.667 144.566 271.998C155.327 263.329 160.363 252.81 160.343 250.658C160.343 250.658 144.534 255.066 131.514 267.044C118.494 279.021 111.467 287.776 111.467 287.776Z" fill="#1A1A1A"/>
<path d="M100.169 354.821C100.169 354.821 96.7766 334.439 87.1746 319.006C77.5726 303.573 69.7315 297.196 69.7315 297.196C69.7315 297.196 64.7587 309.54 74.7196 326.958C84.6805 344.377 100.169 354.821 100.169 354.821Z" fill="#1A1A1A"/>
<path d="M99.7429 355.571C99.5632 355.587 99.3788 355.536 99.2313 355.414C58.3615 322.043 68.3384 297.675 68.7843 296.653C68.8725 296.447 69.0547 296.295 69.275 296.246C69.4973 296.195 69.7258 296.254 69.8941 296.399C93.1077 316.446 99.7423 348.222 100.837 354.388C100.884 354.65 100.78 354.913 100.57 355.073L100.108 355.428C99.9995 355.512 99.8721 355.559 99.7429 355.571ZM69.7676 298.17C68.4189 302.923 64.6845 324.959 99.2505 353.6C97.724 345.695 90.9058 316.985 69.7676 298.17Z" fill="black"/>
<path d="M101.574 294.341C101.475 294.351 101.377 294.339 101.279 294.307L99.7016 293.77C48.8141 275.099 48.7251 249.697 48.7451 248.624C48.7504 248.394 48.867 248.178 49.0592 248.049C49.2561 247.926 49.5011 247.897 49.7092 247.979C82.0144 260.584 101.307 291.943 102.114 293.272C102.268 293.525 102.246 293.85 102.059 294.079C101.937 294.233 101.759 294.324 101.574 294.341ZM50.2459 249.717C50.8808 254.707 56.1581 276.18 99.8177 292.306C95.3563 285.543 77.6486 260.853 50.2459 249.717Z" fill="black"/>
<path d="M101.628 263.529C101.491 263.592 101.21 263.471 101.06 263.324C100.853 263.114 80.2749 242.129 77.9658 220.948C77.9399 220.715 78.0302 220.486 78.208 220.333C78.3838 220.182 78.6285 220.127 78.8488 220.187C79.7076 220.412 99.9037 226.163 102.564 262.354C102.576 262.516 102.532 262.679 102.437 262.812L102.142 263.232C102.021 263.402 101.835 263.51 101.628 263.529ZM79.5136 221.923C81.9819 239.551 97.0003 256.86 101.056 261.26C98.5063 231.699 83.5847 223.595 79.5136 221.923Z" fill="black"/>
<path d="M107.093 263.581C106.943 263.595 106.791 263.562 106.66 263.481C106.437 263.347 106.307 263.101 106.32 262.84L106.399 261.331C106.404 261.251 106.423 261.17 106.455 261.093C109.931 252.862 123.261 224.762 148.856 208.818C149.049 208.699 149.293 208.681 149.508 208.768C149.72 208.86 149.874 209.05 149.922 209.274C150.142 210.338 154.791 235.596 107.385 263.488C107.295 263.54 107.195 263.572 107.093 263.581ZM107.807 261.531C147.719 237.714 148.944 215.645 148.648 210.625C124.147 226.371 111.271 253.357 107.807 261.531Z" fill="black"/>
<path d="M108.265 337.879C108.172 337.888 108.075 337.878 107.982 337.848L107.511 337.695C107.326 337.636 107.173 337.502 107.089 337.324C107.007 337.148 107 336.944 107.072 336.762C108.524 333.106 122.065 300.538 150.044 283.107C150.239 282.985 150.483 282.967 150.696 283.057C150.909 283.148 151.063 283.339 151.11 283.563C151.331 284.626 155.98 309.891 108.558 337.786C108.468 337.838 108.368 337.87 108.265 337.879ZM149.836 284.914C125.052 300.851 111.996 328.748 108.955 335.904C148.911 312.015 150.133 289.935 149.836 284.914Z" fill="black"/>
<path d="M111.382 288.597C111.286 288.606 111.19 288.594 111.105 288.55L110.505 288.241C110.316 288.144 110.182 287.969 110.136 287.763C110.092 287.557 110.142 287.341 110.271 287.175C110.493 286.894 132.734 258.875 160.173 249.547C160.39 249.469 160.642 249.51 160.831 249.657C161.02 249.801 161.122 250.031 161.107 250.268C161.039 251.221 158.93 273.759 111.897 288.384C111.621 288.544 111.501 288.586 111.382 288.597ZM159.49 251.287C136.386 259.62 117.182 281.139 112.483 286.715C151.67 274.255 158.395 255.963 159.49 251.287Z" fill="black"/>
<path d="M103.326 408.537C102.853 408.529 102.544 408.205 102.553 407.814L106.319 262.859C106.331 262.469 106.632 262.2 107.046 262.17C107.435 262.181 107.744 262.506 107.735 262.896L103.969 407.852C103.959 408.214 103.678 408.504 103.326 408.537Z" fill="black"/>
<path d="M103.842 365.628C103.524 365.658 103.217 365.469 103.108 365.157L99.1858 353.881C99.0564 353.511 99.2523 353.107 99.6205 352.98C99.9968 352.854 100.392 353.049 100.522 353.415L104.444 364.691C104.573 365.061 104.377 365.465 104.009 365.592C103.953 365.612 103.897 365.623 103.842 365.628Z" fill="black"/>
<path d="M104.972 345.186C104.868 345.196 104.761 345.183 104.656 345.143C104.29 345.006 104.106 344.598 104.246 344.232L107.068 336.772C107.204 336.406 107.61 336.22 107.98 336.361C108.346 336.499 108.53 336.907 108.391 337.273L105.568 344.733C105.47 344.994 105.232 345.162 104.972 345.186Z" fill="black"/>
<path d="M105.433 315.706C105.071 315.739 104.738 315.491 104.671 315.128L100.812 293.764C100.743 293.378 100.998 293.01 101.381 292.941C101.727 292.841 102.132 293.128 102.205 293.511L106.064 314.875C106.133 315.261 105.878 315.629 105.494 315.698C105.474 315.702 105.453 315.704 105.433 315.706Z" fill="black"/>
<path d="M106.329 280.191C105.995 280.222 105.676 280.013 105.584 279.678L100.883 263.017C100.776 262.643 100.995 262.251 101.372 262.145C101.774 262.036 102.14 262.26 102.243 262.634L106.944 279.296C107.051 279.67 106.831 280.062 106.455 280.167C106.412 280.179 106.37 280.187 106.329 280.191Z" fill="black"/>
<path d="M106.029 304.028C105.935 304.037 105.839 304.027 105.746 303.997C105.373 303.876 105.171 303.478 105.292 303.106L110.355 287.496C110.475 287.122 110.878 286.922 111.246 287.042C111.619 287.162 111.821 287.561 111.7 287.933L106.637 303.542C106.546 303.819 106.301 304.003 106.029 304.028Z" fill="black"/>
<path d="M236.655 371.396C236.655 379.808 229.836 386.628 221.424 386.628C213.011 386.628 206.191 379.808 206.191 371.396C206.191 362.984 213.011 356.165 221.424 356.165C229.836 356.165 236.655 362.984 236.655 371.396Z" fill="#ED3D2A"/>
<path d="M215.174 381.632C206.385 381.632 199.235 374.482 199.235 365.693C199.235 356.904 206.385 349.752 215.174 349.752C223.963 349.752 231.112 356.904 231.112 365.693C231.112 374.482 223.963 381.632 215.174 381.632ZM215.174 351.167C207.164 351.167 200.649 357.682 200.649 365.693C200.649 373.702 207.164 380.218 215.174 380.218C223.183 380.218 229.698 373.702 229.698 365.693C229.698 357.682 223.183 351.167 215.174 351.167Z" fill="black"/>
<path d="M39.6389 163.003L26.6501 172.795C24.9393 174.084 22.5075 173.743 21.218 172.033L11.4259 159.044C10.1365 157.333 10.4778 154.901 12.1882 153.612L25.1771 143.82C26.8879 142.53 29.3197 142.872 30.6091 144.582L40.4011 157.571C41.6905 159.282 41.3493 161.714 39.6389 163.003Z" fill="#1A1A1A"/>
<path d="M28.2959 137.162L30.6615 120.739C30.6615 120.739 28.7142 120.501 27.5857 121.342C26.5825 122.089 17.0501 129.283 14.9421 130.874C14.561 131.161 14.2462 131.504 13.9961 131.911C13.6396 132.489 13.2064 133.404 13.0351 134.614C12.7231 136.819 10.9678 149.226 10.9678 149.226L25.9132 137.478C25.9132 137.478 26.8499 136.782 28.2959 137.162Z" fill="#ED3D2A"/>
<path d="M24.3242 168.656C24.1103 168.656 23.8947 168.639 23.6767 168.608C22.464 168.44 21.3909 167.807 20.6529 166.829L10.8612 153.84C10.1233 152.862 9.81098 151.655 9.98153 150.441C10.152 149.228 10.785 148.155 11.7634 147.417L24.7518 137.625C26.7682 136.104 29.6457 136.507 31.1752 138.527L40.9669 151.516C41.7026 152.494 42.0154 153.7 41.8446 154.913C41.6761 156.128 41.043 157.201 40.0648 157.938L27.0742 167.731C26.2706 168.335 25.3129 168.656 24.3242 168.656ZM27.5082 138.118C26.8422 138.118 26.1742 138.326 25.6025 138.755L12.6146 148.547C11.938 149.057 11.5003 149.799 11.3811 150.638C11.2641 151.477 11.4801 152.311 11.9915 152.99L21.7837 165.977C22.8382 167.375 24.8318 167.655 26.2234 166.6L39.2135 156.808C39.89 156.298 40.3258 155.556 40.4449 154.718C40.5619 153.877 40.3464 153.043 39.8366 152.366L30.0444 139.378C29.4218 138.554 28.4701 138.118 27.5082 138.118Z" fill="black"/>
<path d="M43.4786 138.186C43.0778 138.18 42.7655 137.859 42.7714 137.469C42.7818 136.724 42.5496 136.013 42.0995 135.415L32.5006 122.684C31.966 121.973 31.1851 121.514 30.3032 121.389C29.4197 121.27 28.5479 121.492 27.8348 122.03L15.1036 131.627C14.4005 132.157 13.94 132.93 13.8108 133.803C13.7531 134.188 13.4096 134.457 13.0088 134.4C12.6225 134.344 12.3556 133.984 12.4127 133.598C12.5959 132.352 13.2496 131.253 14.2524 130.496L26.984 120.9C27.9952 120.137 29.2429 119.819 30.5007 119.989C31.7563 120.164 32.8685 120.82 33.6313 121.833L43.2299 134.564C43.8713 135.415 44.2022 136.426 44.1857 137.489C44.1795 137.875 43.865 138.186 43.4786 138.186Z" fill="black"/>
<path d="M28.5459 136.25C28.061 136.188 27.792 135.831 27.845 135.444L29.6003 122.941C29.6538 122.557 29.9994 122.287 30.4002 122.339C30.7867 122.394 31.0556 122.752 31.0021 123.139L29.2472 135.642C29.1974 135.995 28.8936 136.25 28.5459 136.25Z" fill="black"/>
<path d="M41.1109 154.735C40.626 154.673 40.3566 154.315 40.41 153.929L42.8149 136.935C42.8726 136.548 43.2485 136.304 43.6143 136.332C44.0007 136.388 44.2701 136.746 44.2167 137.132L41.8118 154.126C41.7605 154.48 41.4582 154.735 41.1109 154.735Z" fill="black"/>
<path d="M10.8407 150.832C10.3556 150.77 10.0863 150.412 10.1398 150.026L12.5446 133.032C12.6022 132.647 12.9702 132.405 13.344 132.429C13.7305 132.485 13.9998 132.842 13.9465 133.229L11.5416 150.223C11.4901 150.577 11.188 150.832 10.8407 150.832Z" fill="black"/>
<path d="M504.61 389.093H386.488C384.984 389.093 383.754 387.863 383.754 386.36V302.185C383.754 300.681 384.984 299.451 386.488 299.451H504.61C506.113 299.451 507.343 300.681 507.343 302.185V386.36C507.343 387.863 506.113 389.093 504.61 389.093Z" fill="#ED3D2A"/>
<path d="M417.383 360.783C417.248 360.783 417.108 360.744 416.989 360.662C416.664 360.444 416.578 360.004 416.795 359.681L449.489 311.183C449.711 310.859 450.151 310.773 450.471 310.992C450.796 311.21 450.883 311.65 450.665 311.973L417.971 360.47C417.831 360.674 417.61 360.783 417.383 360.783Z" fill="white"/>
<path d="M459.146 360.783C458.973 360.783 458.796 360.719 458.661 360.59C458.377 360.322 458.364 359.874 458.632 359.59L481.722 335.154L458.644 312.077C458.368 311.802 458.368 311.354 458.644 311.078C458.924 310.799 459.367 310.799 459.647 311.078L483.21 334.64C483.482 334.909 483.486 335.347 483.223 335.624L459.659 360.561C459.52 360.709 459.334 360.783 459.146 360.783Z" fill="white"/>
<path d="M478.343 380.819H406.987C406.597 380.819 406.28 380.503 406.28 380.112C406.28 379.722 406.597 379.405 406.987 379.405H478.343C487.884 379.405 495.646 371.644 495.646 362.107V308.477C495.646 298.939 487.884 291.178 478.343 291.178H424.183C423.792 291.178 423.476 290.862 423.476 290.471C423.476 290.081 423.792 289.764 424.183 289.764H478.343C488.665 289.764 497.06 298.158 497.06 308.477V362.107C497.06 372.425 488.665 380.819 478.343 380.819Z" fill="black"/>
<path d="M512.745 323.459C512.51 323.459 512.28 323.342 512.144 323.126C511.939 322.796 512.038 322.36 512.371 322.152C513.69 321.33 515.01 320.448 516.292 319.534C516.609 319.312 517.057 319.382 517.279 319.698C517.505 320.017 517.431 320.459 517.114 320.685C515.807 321.618 514.463 322.516 513.118 323.353C513.004 323.425 512.872 323.459 512.745 323.459ZM523.075 315.754C522.878 315.754 522.684 315.674 522.545 315.513C522.286 315.221 522.314 314.773 522.606 314.516C524.608 312.753 526.561 310.864 528.411 308.897C528.67 308.613 529.127 308.599 529.41 308.866C529.693 309.133 529.706 309.581 529.439 309.867C527.56 311.865 525.579 313.787 523.544 315.577C523.408 315.696 523.239 315.754 523.075 315.754ZM534.236 303.915C534.084 303.915 533.928 303.865 533.8 303.764C533.492 303.522 533.439 303.078 533.681 302.77C535.321 300.677 536.912 298.47 538.4 296.211C538.614 295.88 539.062 295.787 539.383 296.01C539.708 296.223 539.798 296.663 539.584 296.988C538.072 299.282 536.46 301.522 534.791 303.645C534.651 303.822 534.446 303.915 534.236 303.915ZM543.206 290.336C543.091 290.336 542.972 290.308 542.865 290.248C542.524 290.059 542.396 289.629 542.585 289.288C543.876 286.949 545.105 284.521 546.236 282.069C546.4 281.714 546.824 281.562 547.173 281.722C547.526 281.887 547.683 282.306 547.518 282.662C546.375 285.144 545.134 287.603 543.826 289.971C543.695 290.205 543.453 290.336 543.206 290.336ZM550.026 275.558C549.944 275.558 549.858 275.543 549.775 275.513C549.409 275.375 549.224 274.966 549.364 274.602C550.318 272.072 551.193 269.49 551.966 266.931C552.081 266.561 552.455 266.331 552.85 266.461C553.224 266.572 553.434 266.968 553.323 267.342C552.538 269.93 551.654 272.541 550.687 275.1C550.581 275.383 550.314 275.558 550.026 275.558ZM554.745 259.974C554.203 259.867 553.968 259.487 554.054 259.107C554.663 256.502 555.189 253.828 555.625 251.16C555.691 250.778 556.036 250.519 556.439 250.576C556.825 250.64 557.084 251.004 557.022 251.39C556.578 254.087 556.048 256.792 555.436 259.427C555.357 259.754 555.066 259.974 554.745 259.974ZM557.384 243.908C556.928 243.867 556.64 243.522 556.681 243.134C556.945 240.425 557.125 237.705 557.211 235.054C557.224 234.659 557.553 234.316 557.943 234.369C558.334 234.382 558.638 234.709 558.626 235.099C558.535 237.783 558.354 240.532 558.087 243.269C558.054 243.635 557.746 243.908 557.384 243.908ZM557.931 227.638C557.549 227.638 557.236 227.336 557.224 226.953C557.138 224.228 556.961 221.511 556.702 218.875C556.661 218.487 556.945 218.14 557.335 218.1C557.807 218.058 558.067 218.349 558.108 218.736C558.371 221.401 558.552 224.152 558.638 226.908C558.65 227.299 558.342 227.625 557.952 227.638H557.931ZM556.332 211.441C555.991 211.441 555.691 211.196 555.633 210.851C555.185 208.179 554.647 205.511 554.026 202.917C553.931 202.537 554.165 202.156 554.548 202.064C554.926 201.98 555.308 202.21 555.399 202.588C556.028 205.213 556.578 207.914 557.031 210.617C557.092 211.003 556.833 211.367 556.447 211.431C556.41 211.439 556.369 211.441 556.332 211.441ZM552.538 195.616C552.238 195.616 551.958 195.425 551.863 195.123C551.045 192.545 550.129 189.983 549.138 187.506C548.994 187.142 549.171 186.731 549.532 186.585C549.902 186.445 550.31 186.62 550.454 186.98C551.456 189.489 552.385 192.085 553.212 194.695C553.331 195.068 553.125 195.466 552.751 195.583C552.682 195.606 552.608 195.616 552.538 195.616ZM546.494 180.513C546.231 180.513 545.981 180.367 545.857 180.116C544.682 177.709 543.391 175.315 542.026 172.998C541.825 172.661 541.94 172.228 542.277 172.03C542.602 171.829 543.041 171.94 543.243 172.279C544.628 174.626 545.935 177.054 547.132 179.495C547.3 179.845 547.157 180.27 546.807 180.441C546.704 180.491 546.601 180.513 546.494 180.513ZM538.219 166.501C537.997 166.501 537.775 166.396 537.64 166.199C536.123 164.031 534.479 161.866 532.748 159.768C532.501 159.465 532.542 159.02 532.846 158.771C533.151 158.53 533.595 158.565 533.842 158.868C535.597 160.995 537.262 163.19 538.799 165.389C539.025 165.71 538.943 166.15 538.626 166.374C538.503 166.46 538.359 166.501 538.219 166.501ZM527.872 153.957C527.688 153.957 527.502 153.885 527.363 153.741C525.509 151.825 523.544 149.947 521.521 148.161C521.229 147.902 521.2 147.456 521.46 147.162C521.719 146.87 522.163 146.839 522.459 147.1C524.51 148.911 526.504 150.814 528.382 152.759C528.653 153.038 528.645 153.486 528.366 153.758C528.226 153.891 528.049 153.957 527.872 153.957ZM515.68 143.19C515.532 143.19 515.379 143.145 515.252 143.049C513.131 141.444 510.903 139.886 508.629 138.416C508.301 138.204 508.206 137.767 508.416 137.437C508.63 137.111 509.065 137.016 509.394 137.228C511.7 138.716 513.957 140.294 516.107 141.918C516.42 142.155 516.481 142.599 516.243 142.911C516.103 143.094 515.894 143.19 515.68 143.19ZM502.028 134.361C501.912 134.361 501.793 134.334 501.686 134.274C499.38 133.004 496.951 131.775 494.468 130.62C494.114 130.455 493.962 130.034 494.126 129.68C494.291 129.325 494.702 129.171 495.068 129.337C497.575 130.506 500.034 131.75 502.369 133.032C502.71 133.222 502.837 133.651 502.648 133.995C502.517 134.229 502.278 134.361 502.028 134.361Z" fill="black"/>
<path d="M475.324 112.954C474.999 112.954 474.707 112.732 474.633 112.404C474.053 109.843 473.186 107.304 472.055 104.86C471.891 104.504 472.043 104.083 472.401 103.921C472.75 103.752 473.174 103.913 473.338 104.264C474.509 106.798 475.41 109.431 476.014 112.091C476.101 112.471 475.862 112.851 475.48 112.938C475.426 112.948 475.373 112.954 475.324 112.954ZM401.398 103.216C401.045 103.216 400.74 102.952 400.695 102.593C400.65 102.204 400.925 101.853 401.312 101.806C403.75 101.514 406.225 100.311 408.111 98.5068C408.387 98.2373 408.843 98.2457 409.11 98.5294C409.382 98.8111 409.373 99.2589 409.09 99.5305C406.985 101.541 404.214 102.882 401.485 103.212C401.456 103.214 401.427 103.216 401.398 103.216ZM394.882 99.7788C394.549 99.7788 394.253 99.5469 394.188 99.2097C394.118 98.8561 394.081 98.4798 394.077 98.0811C394.077 96.2664 394.837 94.1717 396.334 91.8473C396.486 91.6086 396.65 91.3724 396.819 91.1358C397.045 90.8172 397.481 90.7474 397.806 90.9675C398.122 91.1935 398.196 91.6355 397.97 91.9542C397.818 92.1697 397.67 92.3899 397.526 92.6118C396.173 94.7063 395.491 96.5417 395.491 98.0732C395.495 98.3732 395.524 98.6628 395.577 98.9344C395.651 99.3187 395.405 99.6904 395.018 99.7665C394.973 99.7751 394.928 99.7788 394.882 99.7788ZM468.573 98.2579C468.356 98.2579 468.138 98.1552 467.998 97.9642C466.477 95.8472 464.721 93.8018 462.777 91.8842C462.498 91.6107 462.498 91.1628 462.769 90.8832C463.049 90.6039 463.493 90.6055 463.772 90.877C465.774 92.8499 467.583 94.9569 469.149 97.1378C469.375 97.4564 469.305 97.8984 468.984 98.1266C468.861 98.215 468.717 98.2579 468.573 98.2579ZM412.806 92.8276C412.724 92.8276 412.637 92.8134 412.555 92.7822C412.189 92.6445 412.004 92.2354 412.144 91.8696C413.036 89.5101 413.632 86.9078 413.916 84.135C413.953 83.7465 414.368 83.4363 414.689 83.504C415.079 83.5431 415.363 83.8905 415.322 84.279C415.026 87.173 414.405 89.8965 413.468 92.3714C413.361 92.653 413.089 92.8276 412.806 92.8276ZM457.063 86.8401C456.919 86.8401 456.776 86.7971 456.648 86.7066C454.436 85.1138 452.126 83.7116 449.787 82.5421C449.437 82.3675 449.298 81.9418 449.47 81.5925C449.643 81.2389 450.071 81.0974 450.42 81.2759C452.825 82.4786 455.201 83.9195 457.478 85.5595C457.795 85.7876 457.865 86.2297 457.639 86.5462C457.499 86.7395 457.281 86.8401 457.063 86.8401ZM403.236 86.6468C403.01 86.6468 402.788 86.54 402.652 86.3387C402.43 86.0159 402.512 85.576 402.837 85.3562C404.954 83.9069 407.429 82.6225 410.187 81.539C410.557 81.3955 410.964 81.576 411.104 81.938C411.248 82.3018 411.067 82.7126 410.705 82.8545C408.046 83.9009 405.666 85.134 403.634 86.5235C403.511 86.6077 403.376 86.6468 403.236 86.6468ZM418.24 80.5506C417.916 80.5506 417.624 80.3284 417.55 79.9975C417.463 79.6173 417.706 79.2389 418.084 79.1526C420.682 78.5692 423.416 78.1293 426.211 77.8456C426.544 77.7694 426.943 78.0881 426.984 78.4766C427.025 78.8651 426.742 79.2124 426.351 79.2515C423.617 79.531 420.937 79.9626 418.397 80.5342C418.343 80.5464 418.29 80.5506 418.24 80.5506ZM442.499 79.7265C441.409 79.484 440.537 79.3215 439.748 79.2289C438.116 79.0356 436.32 78.9228 434.404 78.8937C434.014 78.8879 433.706 78.5671 433.71 78.1765C433.713 77.79 434.03 77.4798 434.416 77.4798C436.386 77.5084 438.236 77.6238 439.913 77.8229C440.76 77.9235 441.689 78.0944 442.667 78.3326C443.045 78.4231 443.279 78.8054 443.185 79.1859C443.107 79.5105 442.819 79.7265 442.499 79.7265ZM414.639 76.781C414.273 76.781 413.965 76.5032 413.936 76.1336C413.718 73.6092 413.295 70.9373 412.67 68.1953C412.584 67.8152 412.822 67.4347 413.205 67.3483C413.608 67.2663 413.965 67.5028 414.051 67.883C414.689 70.6886 415.124 73.4244 415.342 76.0141C415.379 76.4026 415.087 76.746 414.701 76.7789C414.681 76.781 414.66 76.781 414.639 76.781ZM411.116 60.9213C410.824 60.9213 410.549 60.7382 410.446 60.4443C409.723 58.3395 408.9 56.2348 407.996 54.1856L407.445 52.9565C407.281 52.6008 407.437 52.1815 407.79 52.0169C408.14 51.8591 408.563 52.0109 408.728 52.3646L409.291 53.6122C410.212 55.7002 411.05 57.842 411.787 59.9838C411.914 60.3539 411.717 60.7567 411.347 60.8842C411.268 60.909 411.194 60.9213 411.116 60.9213ZM215.711 60.2781C215.588 60.2781 215.463 60.2469 215.347 60.1771C215.012 59.9779 214.904 59.5439 215.105 59.2071C216.494 56.8801 218.015 54.5779 219.621 52.3646C219.849 52.0459 220.29 51.9761 220.609 52.2063C220.926 52.4366 220.996 52.8782 220.767 53.1946C219.185 55.3756 217.688 57.6428 216.318 59.9346C216.186 60.1547 215.952 60.2781 215.711 60.2781ZM225.246 47.1086C225.082 47.1086 224.918 47.0534 224.784 46.9381C224.488 46.6814 224.455 46.2351 224.71 45.9393C226.48 43.8921 228.362 41.8796 230.311 39.9579C230.588 39.6826 231.039 39.6885 231.312 39.9643C231.587 40.2437 231.583 40.6916 231.305 40.9652C229.384 42.8603 227.526 44.8455 225.783 46.8641C225.641 47.0265 225.444 47.1086 225.246 47.1086ZM404.267 46.1817C404.029 46.1817 403.795 46.0605 403.663 45.8407C402.274 43.5465 400.745 41.3062 399.117 39.1851C398.878 38.8748 398.936 38.4307 399.244 38.1924C399.557 37.9558 400.005 38.0135 400.235 38.3216C401.9 40.4861 403.458 42.7698 404.872 45.1086C405.073 45.4438 404.966 45.8778 404.633 46.0811C404.518 46.1488 404.391 46.1817 404.267 46.1817ZM236.82 35.6848C236.619 35.6848 236.42 35.6003 236.28 35.4339C236.027 35.1359 236.066 34.6897 236.364 34.4371C238.417 32.7024 240.588 31.0027 242.812 29.387C243.122 29.1546 243.568 29.2245 243.799 29.5432C244.029 29.8576 243.959 30.3017 243.642 30.5298C241.447 32.127 239.305 33.804 237.277 35.5181C237.143 35.6313 236.983 35.6848 236.82 35.6848ZM394.369 33.2964C394.184 33.2964 393.999 33.2243 393.859 33.0804C391.988 31.1402 389.999 29.3007 387.943 27.6088C387.639 27.3601 387.598 26.9143 387.845 26.612C388.095 26.3141 388.544 26.2707 388.84 26.5152C390.94 28.242 392.971 30.1206 394.879 32.0979C395.15 32.3795 395.142 32.8279 394.858 33.0989C394.722 33.2307 394.546 33.2964 394.369 33.2964ZM249.971 26.1144C249.737 26.1144 249.504 25.9975 249.371 25.7815C249.163 25.4506 249.264 25.015 249.597 24.8074C251.897 23.3687 254.281 21.9892 256.682 20.7049C257.017 20.5196 257.453 20.6493 257.64 20.9966C257.823 21.3401 257.693 21.7694 257.348 21.9543C254.976 23.2204 252.62 24.5852 250.345 26.0076C250.23 26.0796 250.1 26.1144 249.971 26.1144ZM381.81 22.9801C381.678 22.9801 381.543 22.943 381.424 22.8669C380.149 22.0367 379.015 21.3582 377.962 20.7911C376.778 20.1559 375.586 19.5414 374.386 18.9495C374.036 18.7769 373.893 18.3513 374.065 18.0019C374.238 17.6483 374.673 17.5085 375.011 17.6791C376.228 18.2794 377.436 18.9023 378.632 19.5456C379.722 20.1311 380.885 20.8302 382.197 21.6789C382.521 21.8928 382.616 22.3306 382.402 22.6573C382.267 22.8669 382.04 22.9801 381.81 22.9801ZM264.314 18.4313C264.044 18.4313 263.788 18.2773 263.67 18.0184C263.508 17.6605 263.664 17.2413 264.02 17.0809C266.497 15.9549 269.037 14.8941 271.575 13.928C271.935 13.7945 272.348 13.9713 272.488 14.3392C272.626 14.7029 272.443 15.1121 272.077 15.2519C269.57 16.2053 267.056 17.2534 264.608 18.3677C264.511 18.411 264.412 18.4313 264.314 18.4313ZM367.282 15.6749C367.192 15.6749 367.101 15.6585 367.015 15.6218C364.536 14.6061 361.983 13.6606 359.427 12.812C359.057 12.6887 358.855 12.2879 358.978 11.918C359.101 11.5437 359.501 11.3442 359.87 11.4676C362.46 12.3288 365.046 13.2848 367.55 14.3144C367.911 14.4625 368.084 14.8755 367.936 15.2371C367.825 15.5108 367.562 15.6749 367.282 15.6749ZM279.522 12.6331C279.22 12.6331 278.94 12.44 278.846 12.1355C278.731 11.7635 278.938 11.3669 279.312 11.2498C281.886 10.448 284.537 9.70833 287.193 9.05033C287.583 8.95185 287.955 9.19224 288.05 9.56652C288.144 9.94661 287.912 10.3288 287.534 10.4235C284.905 11.0751 282.28 11.8068 279.731 12.6024C279.661 12.623 279.591 12.6331 279.522 12.6331ZM351.842 10.5427C349.071 9.84813 346.416 9.25205 343.768 8.74823C343.382 8.67658 343.131 8.30442 343.205 7.92222C343.279 7.54171 343.616 7.28071 344.032 7.35901C346.712 7.86875 349.396 8.47074 352.019 9.15104C352.397 9.24994 352.623 9.63425 352.528 10.0123C352.442 10.3309 352.158 10.5427 351.842 10.5427ZM295.322 8.73386C294.985 8.73386 294.689 8.49558 294.625 8.15427C294.555 7.76985 294.81 7.40191 295.194 7.32995C297.867 6.84081 300.588 6.42364 303.285 6.09279C303.667 6.07007 304.024 6.32304 304.074 6.70957C304.119 7.09801 303.844 7.45126 303.457 7.49881C300.789 7.82543 298.096 8.23669 295.449 8.72382C295.408 8.72963 295.363 8.73386 295.322 8.73386ZM335.859 7.49881C333.125 7.16374 330.412 6.91277 327.711 6.74814C327.321 6.72384 327.02 6.38876 327.045 5.99811C327.07 5.61168 327.423 5.35068 327.793 5.3343C330.527 5.50094 333.273 5.7556 335.945 6.08867C336.336 6.1378 336.611 6.49148 336.562 6.87991C336.517 7.23781 336.212 7.49881 335.859 7.49881ZM311.473 6.75871C311.103 6.75871 310.791 6.47076 310.766 6.0949C310.741 5.70425 311.042 5.36928 311.428 5.34434C314.17 5.17601 316.924 5.0918 319.613 5.0918C320.003 5.0918 320.32 5.40838 320.32 5.79893C320.32 6.18916 320.003 6.50574 319.613 6.50574C316.953 6.50574 314.228 6.58996 311.519 6.75871H311.473Z" fill="black"/>
<path d="M105.849 195.576C105.849 195.576 100.566 224.529 130.787 237.632C134.083 239.061 161.431 239.322 161.431 239.322H326.695" fill="white"/>
<path d="M490.352 137.602H473.269C472.912 137.602 472.622 137.312 472.622 136.955V121.214C472.622 120.856 472.912 120.566 473.269 120.566H490.352C490.71 120.566 491 120.856 491 121.214V136.955C491 137.312 490.71 137.602 490.352 137.602Z" fill="white"/>
<path d="M487.377 138.31H486.249C485.859 138.31 485.542 137.993 485.542 137.602C485.542 137.212 485.859 136.895 486.249 136.895H487.377C488.985 136.895 490.293 135.587 490.293 133.98V124.187C490.293 122.58 488.985 121.274 487.377 121.274H476.244C474.636 121.274 473.327 122.58 473.327 124.187V133.98C473.327 135.587 474.636 136.895 476.244 136.895H486.699C487.09 136.895 487.407 137.212 487.407 137.602C487.407 137.993 487.09 138.31 486.699 138.31H476.244C473.854 138.31 471.912 136.368 471.912 133.98V124.187C471.912 121.801 473.854 119.859 476.244 119.859H487.377C489.767 119.859 491.709 121.801 491.709 124.187V133.98C491.709 136.368 489.767 138.31 487.377 138.31Z" fill="black"/>
<path d="M492.542 179.424H471.124V158.006H492.542V179.424Z" fill="white"/>
<path d="M495.877 208.102H467.945C467.537 208.102 467.204 207.768 467.204 207.361V199.641C467.204 199.234 467.537 198.9 467.944 198.9H495.877C496.284 198.9 496.618 199.234 496.618 199.641V207.361C496.618 207.768 496.284 208.102 495.877 208.102Z" fill="#1A1A1A"/>
<path d="M481.811 129.084L460.57 172.322C460.57 172.322 463.506 188.361 469.632 195.059L494.763 195.058C494.763 195.058 502.572 181.835 503.235 172.566L481.811 129.084ZM481.811 175.489C478.069 175.489 475.036 172.456 475.036 168.714C475.036 164.973 478.069 161.939 481.811 161.939C485.552 161.939 488.586 164.973 488.586 168.714C488.586 172.456 485.552 175.489 481.811 175.489Z" fill="#ED3D2A"/>
<path d="M469.634 195.768C469.416 195.768 469.202 195.667 469.062 195.478C462.491 186.509 459.98 173.019 459.877 172.45C459.849 172.3 459.869 172.146 459.939 172.011L481.177 128.773C481.346 128.42 481.773 128.282 482.123 128.451C482.472 128.623 482.616 129.046 482.443 129.398L461.312 172.421C461.674 174.238 464.279 186.556 470.205 194.644C470.435 194.958 470.365 195.4 470.053 195.632C469.926 195.725 469.777 195.768 469.634 195.768Z" fill="black"/>
<path d="M494.953 195.503C494.809 195.503 494.669 195.462 494.542 195.371C494.225 195.145 494.151 194.703 494.377 194.387C500.135 186.287 502.26 174.19 502.543 172.435L481.177 129.4C481.005 129.051 481.144 128.625 481.494 128.453C481.843 128.274 482.271 128.42 482.443 128.771L503.908 172.008C503.974 172.137 503.994 172.281 503.974 172.423C503.896 172.984 501.915 186.223 495.528 195.205C495.393 195.4 495.175 195.503 494.953 195.503Z" fill="black"/>
<path d="M494.764 195.766H469.634C469.243 195.766 468.927 195.449 468.927 195.059C468.927 194.668 469.243 194.352 469.634 194.352H494.764C495.154 194.352 495.471 194.668 495.471 195.059C495.471 195.449 495.154 195.766 494.764 195.766Z" fill="black"/>
<path d="M492.2 208.809H471.623C468.795 208.809 466.498 206.51 466.498 203.684V203.319C466.498 200.493 468.795 198.194 471.623 198.194H492.2C495.027 198.194 497.324 200.493 497.324 203.319V203.684C497.324 206.51 495.027 208.809 492.2 208.809ZM471.623 199.608C469.576 199.608 467.912 201.272 467.912 203.319V203.684C467.912 205.731 469.576 207.395 471.623 207.395H492.2C494.246 207.395 495.91 205.731 495.91 203.684V203.319C495.91 201.272 494.246 199.608 492.2 199.608H471.623Z" fill="black"/>
<path d="M481.831 176.196C477.705 176.196 474.352 172.84 474.352 168.714C474.352 164.588 477.705 161.232 481.831 161.232C485.957 161.232 489.315 164.588 489.315 168.714C489.315 172.84 485.957 176.196 481.831 176.196ZM481.831 162.646C478.486 162.646 475.765 165.369 475.765 168.714C475.765 172.059 478.486 174.782 481.831 174.782C485.176 174.782 487.901 172.059 487.901 168.714C487.901 165.369 485.176 162.646 481.831 162.646Z" fill="black"/>
<path d="M481.831 162.131C481.441 162.131 481.124 161.814 481.124 161.424V129.979C481.124 129.589 481.441 129.272 481.831 129.272C482.221 129.272 482.538 129.589 482.538 129.979V161.424C482.538 161.814 482.221 162.131 481.831 162.131Z" fill="black"/>
<path d="M67.8954 57.8476C67.7974 57.9998 67.6425 58.1154 67.4505 58.1555C67.0689 58.2397 66.6918 57.997 66.6105 57.6148L62.6334 39.2735C62.5477 38.8902 62.7901 38.5137 63.1741 38.4335C63.556 38.3489 63.9328 38.5915 64.0139 38.9741L67.9911 57.3156C68.0342 57.5069 67.9931 57.6957 67.8954 57.8476Z" fill="black"/>
<path d="M75.0777 46.6899C74.9798 46.842 74.8252 46.9573 74.6329 46.9978L56.2908 50.9717C55.9092 51.0561 55.5324 50.8135 55.451 50.4311C55.3649 50.0485 55.6076 49.6715 55.9916 49.5913L74.3336 45.617C74.7154 45.5325 75.0925 45.7752 75.1736 46.1577C75.2167 46.3491 75.1758 46.5376 75.0777 46.6899Z" fill="black"/>
<path d="M358.562 103.992C358.562 82.9325 341.943 65.7026 321.632 65.7026H142.287C121.976 65.7026 105.357 82.9325 105.357 103.992V110.353H358.562V103.992Z" fill="#1A1A1A"/>
<path d="M292.804 89.5536C292.804 94.0169 289.186 97.6349 284.723 97.6349C280.26 97.6349 276.641 94.0169 276.641 89.5536C276.641 85.0902 280.26 81.4722 284.723 81.4722C289.186 81.4722 292.804 85.0902 292.804 89.5536Z" fill="white"/>
<path d="M317.354 89.5536C317.354 94.0169 313.736 97.6349 309.273 97.6349C304.809 97.6349 301.191 94.0169 301.191 89.5536C301.191 85.0902 304.809 81.4722 309.273 81.4722C313.736 81.4722 317.354 85.0902 317.354 89.5536Z" fill="white"/>
<path d="M341.905 89.5536C341.905 94.0169 338.286 97.6349 333.823 97.6349C329.359 97.6349 325.741 94.0169 325.741 89.5536C325.741 85.0902 329.359 81.4722 333.823 81.4722C338.286 81.4722 341.905 85.0902 341.905 89.5536Z" fill="#ED3D2A"/>
<path d="M358.563 156.263C358.173 156.263 357.856 155.946 357.856 155.556V102.583C357.856 82.9152 341.853 66.9115 322.182 66.9115H239.23C238.839 66.9115 238.522 66.5949 238.522 66.2048C238.522 65.8141 238.839 65.4976 239.23 65.4976H322.182C342.634 65.4976 359.27 82.1339 359.27 102.583V155.556C359.27 155.946 358.954 156.263 358.563 156.263Z" fill="black"/>
<path d="M348.467 109.855H116.165C115.774 109.855 115.458 109.539 115.458 109.148C115.458 108.757 115.774 108.441 116.165 108.441H348.467C348.857 108.441 349.174 108.757 349.174 109.148C349.174 109.539 348.857 109.855 348.467 109.855Z" fill="black"/>
<path d="M333.516 98.0328C328.838 98.0328 325.035 94.2304 325.035 89.5541C325.035 84.8781 328.838 81.0737 333.516 81.0737C338.19 81.0737 341.992 84.8781 341.992 89.5541C341.992 94.2304 338.19 98.0328 333.516 98.0328ZM333.516 82.4876C329.619 82.4876 326.449 85.6569 326.449 89.5541C326.449 93.4491 329.619 96.619 333.516 96.619C337.409 96.619 340.578 93.4491 340.578 89.5541C340.578 85.6569 337.409 82.4876 333.516 82.4876Z" fill="black"/>
<path d="M309.233 98.0328C304.555 98.0328 300.752 94.2304 300.752 89.5541C300.752 84.8781 304.555 81.0737 309.233 81.0737C313.907 81.0737 317.709 84.8781 317.709 89.5541C317.709 94.2304 313.907 98.0328 309.233 98.0328ZM309.233 82.4876C305.336 82.4876 302.166 85.6569 302.166 89.5541C302.166 93.4491 305.336 96.619 309.233 96.619C313.126 96.619 316.295 93.4491 316.295 89.5541C316.295 85.6569 313.126 82.4876 309.233 82.4876Z" fill="black"/>
<path d="M284.95 98.0328C280.274 98.0328 276.469 94.2304 276.469 89.5541C276.469 84.8781 280.274 81.0737 284.95 81.0737C289.626 81.0737 293.429 84.8781 293.429 89.5541C293.429 94.2304 289.626 98.0328 284.95 98.0328ZM284.95 82.4876C281.053 82.4876 277.884 85.6569 277.884 89.5541C277.884 93.4491 281.053 96.619 284.95 96.619C288.845 96.619 292.015 93.4491 292.015 89.5541C292.015 85.6569 288.845 82.4876 284.95 82.4876Z" fill="black"/>
<path d="M197.806 222.133C197.416 222.133 197.099 221.817 197.099 221.426V121.553C197.099 121.162 197.416 120.846 197.806 120.846C198.197 120.846 198.513 121.162 198.513 121.553V221.426C198.513 221.817 198.197 222.133 197.806 222.133Z" fill="black"/>
<path d="M322.523 240.124H263.43C263.039 240.124 262.723 239.808 262.723 239.417C262.723 239.027 263.039 238.71 263.43 238.71H322.523C328.168 238.71 333.125 237.533 338.128 235.008C338.482 234.831 338.901 234.972 339.082 235.321C339.255 235.67 339.115 236.096 338.77 236.27C333.627 238.865 328.316 240.124 322.523 240.124Z" fill="black"/>
<path d="M215.711 240.124H161.824C161.433 240.124 161.117 239.808 161.117 239.417C161.117 239.026 161.433 238.71 161.824 238.71H215.711C216.102 238.71 216.418 239.026 216.418 239.417C216.418 239.808 216.102 240.124 215.711 240.124Z" fill="black"/>
<path d="M130.232 237.798C130.148 237.798 130.062 237.783 129.979 237.75C126.033 236.24 122.169 234.055 118.169 231.07C113.772 227.79 108.852 218.693 108.644 218.306C106.459 213.464 105.364 208.342 105.364 203.038V102.583C105.364 82.1339 122 65.4976 142.449 65.4976H192.119C192.509 65.4976 192.826 65.8141 192.826 66.2048C192.826 66.595 192.509 66.9115 192.119 66.9115H142.449C122.781 66.9115 106.778 82.9154 106.778 102.583V203.038C106.778 208.14 107.832 213.067 109.913 217.681C109.939 217.729 114.87 226.842 119.016 229.936C122.911 232.84 126.662 234.965 130.485 236.431C130.851 236.57 131.032 236.98 130.892 237.343C130.785 237.625 130.516 237.798 130.232 237.798Z" fill="black"/>
<path d="M328.636 212.224H255.12C254.729 212.224 254.413 211.907 254.413 211.517C254.413 211.126 254.729 210.81 255.12 210.81H327.929V184.554C327.929 184.163 328.246 183.847 328.636 183.847C329.027 183.847 329.343 184.163 329.343 184.554V211.517C329.343 211.907 329.027 212.224 328.636 212.224Z" fill="black"/>
<path d="M234.208 204.43C233.817 204.43 233.501 204.113 233.501 203.723V149.299C233.501 148.908 233.817 148.592 234.208 148.592H321.339C321.73 148.592 322.047 148.908 322.047 149.299C322.047 149.69 321.73 150.006 321.339 150.006H234.915V203.723C234.915 204.113 234.599 204.43 234.208 204.43Z" fill="black"/>
<path d="M149.124 214.537H120.986V186.398H149.124V214.537Z" fill="#1A1A1A"/>
<path d="M158.373 206.704H130.234C129.843 206.704 129.527 206.387 129.527 205.997V177.858C129.527 177.467 129.843 177.151 130.234 177.151H158.373C158.763 177.151 159.08 177.467 159.08 177.858V205.997C159.08 206.387 158.763 206.704 158.373 206.704ZM130.941 205.29H157.666V178.565H130.941V205.29Z" fill="black"/>
<path d="M165.521 153.063H137.383V124.925H165.521V153.063Z" fill="#ED3D2A"/>
<path d="M166.086 153.948H137.947C137.556 153.948 137.24 153.631 137.24 153.241V125.102C137.24 124.711 137.556 124.395 137.947 124.395H166.086C166.476 124.395 166.793 124.711 166.793 125.102V153.241C166.793 153.631 166.476 153.948 166.086 153.948ZM138.654 152.534H165.379V125.809H138.654V152.534Z" fill="black"/>
<path d="M246.942 211.343L322.589 165.631" stroke="black" stroke-width="1.37368" stroke-linecap="round" stroke-linejoin="round" stroke-dasharray="9.72 9.72"/>
<path d="M257.347 251.134C257.347 251.134 258.979 236.601 259.187 235.472C259.396 234.343 260.45 227.638 258.415 222.769C256.38 217.899 255.982 213.353 252.194 212.792C248.407 212.23 246.958 212.423 245.949 213.788C244.939 215.153 245.5 218.826 246.52 220.995C247.54 223.165 251.334 230.481 247.492 233.168C243.65 235.854 242.424 233.617 242.009 230.147C241.593 226.675 241.156 220.166 242.699 217.597C244.241 215.029 246.663 212.551 246.597 210.339C246.531 208.127 244.519 205.896 241.743 206.28C238.967 206.665 237.215 208.092 237.215 208.092C237.215 208.092 228.441 208.008 226.405 215.762C226.405 215.762 220.866 220.029 219.965 227.082C219.065 234.135 220.419 242.06 221.166 245.097C221.912 248.134 225.136 256.51 226.997 258.695C226.997 258.695 233.739 253.276 239.107 252.376C244.476 251.477 257.347 251.134 257.347 251.134Z" fill="white"/>
<path d="M257.692 251.844C257.283 251.83 256.977 251.503 256.99 251.113C256.993 251.008 257.353 240.431 258.876 233.357C260.379 226.358 255.105 214.658 251.686 213.334C249.852 212.624 248.128 212.704 247.086 213.547C246.357 214.136 246.05 215.057 246.221 216.135C246.813 219.833 247.825 222.085 248.638 223.895C249.71 226.283 250.485 228.008 249.392 231.021C247.968 234.961 245.779 235.498 244.905 235.546C243.772 235.585 242.767 235.039 242.307 234.101C241.56 232.576 238.868 221.009 243.312 215.064C245.535 212.27 247.058 209.983 244.95 207.933C243.411 206.435 240.456 206.864 238.658 208.208C235.957 210.225 234.642 214.173 233.682 217.054C230.241 227.383 233.498 237.143 233.532 237.24C233.659 237.608 233.461 238.012 233.092 238.139C232.719 238.262 232.322 238.069 232.193 237.698C232.05 237.284 228.742 227.405 232.341 216.608C233.36 213.547 234.757 209.355 237.811 207.076C240.068 205.388 243.813 204.849 245.936 206.918C247.614 208.548 247.632 210.302 246.999 211.937C248.41 211.255 250.278 211.268 252.197 212.014C256.551 213.7 261.845 226.274 260.259 233.655C258.763 240.604 258.407 251.055 258.404 251.16C258.391 251.544 258.074 251.846 257.692 251.844ZM244.762 215.512C244.65 215.655 244.54 215.792 244.432 215.927C240.443 221.265 242.912 232.119 243.578 233.477C243.789 233.904 244.255 234.155 244.827 234.133C246.065 234.066 247.273 232.722 248.062 230.539C248.959 228.064 248.352 226.713 247.347 224.476C246.499 222.589 245.445 220.24 244.825 216.359C244.778 216.071 244.758 215.787 244.762 215.512Z" fill="black"/>
<path d="M225.609 239.464C225.28 239.461 224.988 239.231 224.92 238.898C223.575 232.231 222.546 217.835 228.274 211.077C230.451 208.504 233.368 207.239 236.985 207.388C237.375 207.401 237.681 207.728 237.668 208.118C237.655 208.509 237.277 208.835 236.938 208.802C233.779 208.728 231.237 209.768 229.353 211.991C223.975 218.336 225.01 232.183 226.308 238.616C226.385 239.001 226.138 239.373 225.753 239.451C225.706 239.46 225.656 239.464 225.609 239.464Z" fill="black"/>
<path d="M226.606 259.399C226.375 259.397 226.15 259.282 226.016 259.074C218.987 248.135 219.108 235.353 219.172 228.486C219.251 220.168 226.179 214.231 226.473 213.982C226.77 213.725 227.214 213.767 227.469 214.065C227.722 214.363 227.684 214.811 227.386 215.062C227.318 215.119 220.66 220.84 220.586 228.501C220.523 235.219 220.406 247.726 227.205 258.309C227.417 258.638 227.321 259.075 226.993 259.287C226.873 259.364 226.739 259.4 226.606 259.399Z" fill="black"/>
<path d="M353.747 156.022C353.747 156.022 368.938 165.472 369.621 182.005L354.683 184.419L346.51 192.194L340.188 188.387L330.157 181.409L324.489 171.167L323.753 166.803L325.537 163.507L328.233 162.358L331.431 165.212L337.947 174.692L343.135 176.037L345.765 175.159C345.765 175.159 347.615 168.461 332.396 161.963C331.792 161.706 321.337 162.343 324.318 156.625C325.228 154.879 326.187 152.727 329.897 152.567C333.663 152.404 335.335 148.969 341.209 150.334C347.16 151.716 353.977 156.282 353.747 156.022Z" fill="white"/>
<path d="M345.837 192.582C345.68 192.583 345.524 192.535 345.395 192.431C345.354 192.4 341.291 189.238 334.942 186.086C328.184 182.731 321.647 170.754 323.04 166.296C323.653 164.335 324.808 162.861 326.217 162.186C324.547 161.659 323.186 160.552 322.957 158.223C322.661 155.278 325.418 152.684 328.142 151.966C331.826 150.998 335.978 152.52 339.005 153.629C349.689 157.542 355.357 166.285 355.594 166.654C355.802 166.984 355.708 167.423 355.376 167.633C355.053 167.843 354.612 167.748 354.4 167.417C354.346 167.329 348.741 158.701 338.519 154.957C335.665 153.912 331.76 152.47 328.499 153.336C326.329 153.905 324.151 155.95 324.361 158.084C324.653 161.015 327.389 161.247 330.937 161.248C338.396 161.476 345.754 170.792 346.474 172.325C346.921 173.269 346.734 174.422 345.988 175.257C345.406 175.911 343.633 177.291 339.655 175.948C336.617 174.923 335.748 173.243 334.552 170.916C333.641 169.152 332.509 166.958 329.987 164.191C329.248 163.383 328.354 163.05 327.422 163.255C326.109 163.548 324.977 164.841 324.392 166.719C323.295 170.218 329.162 181.635 335.573 184.819C342.058 188.042 346.101 191.186 346.266 191.318C346.577 191.558 346.629 192.003 346.39 192.312C346.251 192.488 346.042 192.58 345.837 192.582ZM330.41 162.663C330.629 162.831 330.836 163.023 331.031 163.237C333.683 166.142 334.861 168.43 335.809 170.268C336.933 172.45 337.61 173.766 340.104 174.609C342.314 175.355 344.106 175.241 344.932 174.316C345.295 173.906 345.401 173.362 345.196 172.93C344.401 171.245 337.281 162.856 330.916 162.663C330.751 162.662 330.583 162.663 330.41 162.663Z" fill="black"/>
<path d="M369.518 179.457C369.201 179.46 368.911 179.251 368.827 178.93C366.178 168.901 361.673 162.523 352.765 156.188C346.971 152.064 339.266 147.97 330.995 152.972C330.652 153.172 330.219 153.065 330.023 152.733C329.819 152.398 329.926 151.963 330.262 151.761C339.24 146.332 347.441 150.665 353.586 155.035C362.792 161.585 367.451 168.184 370.197 178.57C370.295 178.947 370.072 179.334 369.694 179.433C369.633 179.45 369.575 179.457 369.518 179.457Z" fill="black"/>
<path d="M370.479 183.338C367.372 181.485 346.99 192.953 346.99 192.953L379.409 229.947C379.409 229.947 398.013 257.45 399.281 258.93C400.549 260.409 407.954 270.389 408.905 282.224C409.294 287.069 409.75 289.832 409.75 289.832C409.75 289.832 432.786 293.847 432.786 266.585C432.786 258.977 424.316 241.238 412.099 224.086C410.728 222.162 400.596 208.575 400.596 208.575C400.596 208.575 389.979 195.006 370.479 183.338Z" fill="#1A1A1A"/>
<path d="M370.479 183.338C367.372 181.485 346.99 192.953 346.99 192.953L379.409 229.947C379.409 229.947 398.013 257.45 399.281 258.93C400.549 260.409 407.954 270.389 408.905 282.224C409.294 287.069 409.75 289.832 409.75 289.832C409.75 289.832 432.786 293.847 432.786 266.585C432.786 258.977 424.316 241.238 412.099 224.086C410.728 222.162 400.596 208.575 400.596 208.575C400.596 208.575 389.979 195.006 370.479 183.338Z" stroke="black" stroke-width="1.37368"/>
<path d="M318.031 351.33C318.453 375.211 311.69 407.546 311.69 407.546L410.279 407.652C410.279 407.652 404.573 378.064 407.848 354.712C408.274 351.677 412.603 301.878 407.848 277.469C407.342 274.867 401.614 261.83 394.217 257.286C392.337 256.131 371.287 243.655 343.602 261.09" fill="#1A1A1A"/>
<path d="M318.031 351.33C318.453 375.211 311.69 407.546 311.69 407.546L410.279 407.652C410.279 407.652 404.573 378.064 407.848 354.712C408.274 351.677 412.603 301.878 407.848 277.469C407.342 274.867 401.614 261.83 394.217 257.286C392.337 256.131 371.287 243.655 343.602 261.09" stroke="black" stroke-width="1.37368"/>
<path d="M352.69 253.904C352.69 253.904 327.937 254.731 316.767 274.642C313.852 279.829 301.577 307.224 301.577 307.33C301.577 307.436 288.934 319.75 282.73 304.272C280.36 298.373 266.872 255.311 266.872 255.311C266.872 255.311 243.438 241.656 224.164 262.474C223.231 263.482 227.341 281.411 227.341 281.411C227.341 281.411 232.119 306.808 238.049 320.819C238.67 322.31 245.194 345.023 265.429 356.471C268.538 358.229 288.466 366.831 313.212 356.329C315.644 355.297 340.252 345.681 353.958 299.764" fill="#1A1A1A"/>
<path d="M352.69 253.904C352.69 253.904 327.937 254.731 316.767 274.642C313.852 279.829 301.577 307.224 301.577 307.33C301.577 307.436 288.934 319.75 282.73 304.272C280.36 298.373 266.872 255.311 266.872 255.311C266.872 255.311 243.438 241.656 224.164 262.474C223.231 263.482 227.341 281.411 227.341 281.411C227.341 281.411 232.119 306.808 238.049 320.819C238.67 322.31 245.194 345.023 265.429 356.471C268.538 358.229 288.466 366.831 313.212 356.329C315.644 355.297 340.252 345.681 353.958 299.764" stroke="black" stroke-width="1.37368" stroke-linecap="round" stroke-linejoin="round"/>
<path d="M348.595 200.527C348.595 200.527 342.721 222.085 342.124 224.944C341.526 227.802 339.219 237.294 350.753 239.614C350.753 239.614 352.172 235.111 355.171 232.446C358.17 229.781 360.548 228.051 360.548 228.051C360.548 228.051 368.325 229.754 370.331 223.183C372.336 216.612 366.614 213.546 364.526 213.086C362.439 212.626 360.411 211.642 360.411 211.642C360.411 211.642 350.264 205.423 348.595 200.527Z" fill="white"/>
<path d="M348.924 200.536C348.924 200.536 345.76 191.439 349.355 185.575C352.949 179.712 359.187 178.018 364.266 178.229C369.346 178.441 378.711 181.022 384.325 186.565C384.325 186.565 396.574 189.777 399.894 195.627C403.213 201.476 401.046 207.957 400.291 209.929C399.535 211.901 395.065 219.855 394.799 221.671C394.799 221.671 393.969 223.272 397.671 226.519C401.374 229.766 405.83 233.948 406.441 240.698C407.052 247.449 406.535 259.02 395.349 262.962C384.163 266.904 373.534 260.216 372.286 258.644L371.304 258.509C371.304 258.509 359.718 262.981 353.75 255.166C347.782 247.35 351.17 238.116 352.652 236.053C354.135 233.989 357.693 229.578 360.102 228.384C360.102 228.384 367.127 230.359 369.524 224.887C371.921 219.415 369.362 215.117 366.989 213.708C364.616 212.299 362.394 212.637 362.394 212.637C362.394 212.637 351.111 208.196 348.924 200.536Z" fill="#ED3D2A"/>
<path d="M362.765 229.167C361.783 229.139 360.785 228.935 359.822 228.539C358.224 227.884 356.883 226.77 355.95 225.321C355.738 224.992 355.832 224.554 356.163 224.342C356.482 224.133 356.932 224.224 357.14 224.553C357.915 225.76 359.028 226.684 360.361 227.23C363.918 228.688 368.026 226.985 369.494 223.414C370.206 221.685 370.199 219.782 369.48 218.057C368.757 216.332 367.409 214.991 365.678 214.279C363.438 213.357 360.905 213.646 358.922 215.075C358.607 215.305 358.161 215.232 357.936 214.913C357.711 214.594 357.781 214.152 358.1 213.925C360.481 212.217 363.514 211.858 366.217 212.97C370.509 214.735 372.567 219.661 370.803 223.954C369.436 227.28 366.167 229.263 362.765 229.167Z" fill="black"/>
<path d="M363.461 225.421C363.243 225.414 363.032 225.308 362.898 225.115L359.303 219.87C359.172 219.679 359.142 219.438 359.222 219.22C359.303 219.004 359.484 218.841 359.708 218.784L366.139 217.127C366.515 217.033 366.904 217.256 367 217.637C367.1 218.014 366.871 218.4 366.494 218.498L361.041 219.902L364.064 224.313C364.285 224.636 364.203 225.076 363.88 225.297C363.754 225.386 363.605 225.425 363.461 225.421Z" fill="black"/>
<path d="M350.731 240.32C346.538 239.813 343.636 238.189 342.049 235.491C339.084 230.465 341.798 223.611 341.918 223.322L348.243 200.347C348.344 199.974 348.717 199.739 349.112 199.854C349.488 199.957 349.711 200.346 349.606 200.723L343.254 223.776C343.2 223.917 340.658 230.358 343.27 234.778C344.622 237.074 347.169 238.464 350.837 238.911C351.227 238.959 351.5 239.31 351.452 239.7C351.409 240.065 351.092 240.331 350.731 240.32Z" fill="black"/>
<path d="M341.789 220.241C341.514 220.233 341.239 220.186 340.97 220.102C339.36 219.599 338.46 217.885 338.963 216.279L342.832 203.866C343.331 202.258 345.06 201.347 346.653 201.86C347.456 202.109 348.012 202.525 348.312 203.092C348.608 203.662 348.633 204.356 348.384 205.155C348.262 205.525 347.89 205.735 347.495 205.618C347.124 205.503 346.917 205.106 347.031 204.733C347.167 204.306 347.176 203.975 347.055 203.749C346.938 203.526 346.664 203.343 346.236 203.21C345.364 202.94 344.453 203.431 344.186 204.287L340.316 216.701C340.044 217.563 340.528 218.484 341.391 218.753C341.811 218.882 342.248 218.841 342.641 218.635C343.025 218.43 343.311 218.091 343.438 217.677C343.551 217.306 343.96 217.096 344.323 217.209C344.698 217.325 344.905 217.721 344.791 218.094C344.551 218.869 344.023 219.505 343.3 219.887C342.824 220.137 342.307 220.256 341.789 220.241Z" fill="black"/>
<path d="M364.884 260.679C363.93 260.652 362.897 260.54 361.785 260.319C355.668 259.112 349.344 254.042 349.946 243.437C350.588 232.024 360.123 227.788 360.219 227.747C360.59 227.589 360.996 227.759 361.15 228.115C361.304 228.476 361.14 228.89 360.782 229.047C360.42 229.203 351.949 232.999 351.359 243.516C350.67 255.721 359.373 258.4 362.055 258.932C370.202 260.524 373.398 255.903 373.532 255.708C373.743 255.383 374.189 255.295 374.508 255.508C374.835 255.722 374.925 256.159 374.714 256.484C374.581 256.686 371.75 260.877 364.884 260.679Z" fill="black"/>
<path d="M387.339 264.651C380.871 264.465 374.701 262.218 371.516 258.869C371.245 258.586 371.257 258.14 371.541 257.87C371.82 257.599 372.276 257.612 372.539 257.895C375.557 261.062 381.606 263.221 387.828 263.246C393.423 263.319 398.243 261.751 401.058 258.945C404.281 255.734 406.064 250.21 405.944 243.793C405.876 240.055 405.168 236.779 403.836 234.058C402.729 231.793 400.911 230.248 398.988 228.613C397.856 227.649 396.68 226.651 395.644 225.482C394.875 224.618 394.087 223.561 394.055 222.253C394.011 220.635 395.011 218.891 395.812 217.492C395.973 217.212 396.124 216.948 396.259 216.698L396.849 215.623C397.6 214.261 398.377 212.851 398.978 211.406C400.701 207.246 401.286 203.233 400.724 199.482C399.467 191.145 384.316 187.297 384.161 187.258C384.046 187.229 383.937 187.171 383.849 187.086C376.758 180.419 364.096 176.256 355.2 180.834C346.66 185.217 348.515 195.056 348.597 195.474C348.592 196.068 348.337 206.058 363.708 212.401C364.07 212.551 364.244 212.963 364.093 213.325C363.943 213.687 363.527 213.855 363.169 213.709C346.823 206.965 347.174 196.039 347.196 195.577C347.176 195.577 345.078 184.439 354.554 179.573C363.962 174.751 377.214 179.003 384.684 185.932C386.554 186.422 400.791 190.432 402.12 199.272C402.724 203.28 402.108 207.546 400.286 211.947C399.655 213.467 398.856 214.91 398.088 216.307L397.506 217.372C397.363 217.631 397.207 217.906 397.038 218.195C396.324 219.441 395.436 220.993 395.471 222.213C395.491 223.069 396.106 223.87 396.699 224.541C397.675 225.637 398.807 226.601 399.903 227.535C401.854 229.193 403.869 230.907 405.104 233.436C406.529 236.346 407.289 239.82 407.36 243.769C407.434 247.764 406.842 255.178 402.057 259.949C398.975 263.023 393.781 264.74 387.808 264.66C387.651 264.658 387.495 264.655 387.339 264.651Z" fill="black"/>
</g>
</g>
</g>
<defs>
<clipPath id="clip0_502_1620">
<rect width="568" height="411.968" fill="white"/>
</clipPath>
</defs>
</svg>
