<svg xmlns="http://www.w3.org/2000/svg" width="140" height="39" fill="none"><g clip-path="url(#a)"><path fill="#000" d="M47.673 13.348V5.713h2.86v7.429a2.614 2.614 0 0 0 .398 1.589c.278.397.755.556 1.43.556a2.317 2.317 0 0 0 1.827-.794 3.15 3.15 0 0 0 .676-2.066V5.673h2.86v11.64h-2.86v-1.708c-.32.595-.785 1.1-1.351 1.47a3.71 3.71 0 0 1-2.066.516 3.507 3.507 0 0 1-2.82-1.152c-.636-.71-.954-1.74-.954-3.09ZM61.18 4.37V1.828h2.94V4.37h-2.94Zm.08 12.991V5.713h2.86v11.64l-2.86.008ZM67.457 12.316V10.01H88.95v2.305H67.457ZM91.215 7.906V5.68h2.304V1.828h5.76v2.224h-2.9v1.669h2.662v2.225h-2.662V17.4h-2.86V7.906h-2.304ZM101.425 17.36V5.714h6.531v2.225h-3.655v9.415l-2.876.008ZM109.648 11.521a8.288 8.288 0 0 1 .358-2.503 5.457 5.457 0 0 1 1.072-1.947 4.37 4.37 0 0 1 1.709-1.231 5.954 5.954 0 0 1 2.304-.437 5.958 5.958 0 0 1 2.304.437c.653.28 1.236.7 1.708 1.231a5.444 5.444 0 0 1 1.073 1.947c.247.811.367 1.655.358 2.503a8.288 8.288 0 0 1-.358 2.503 5.445 5.445 0 0 1-1.073 1.947 4.368 4.368 0 0 1-1.708 1.231 6.103 6.103 0 0 1-2.304.437 5.954 5.954 0 0 1-2.304-.437 4.838 4.838 0 0 1-1.709-1.232 5.458 5.458 0 0 1-1.072-1.946 9.718 9.718 0 0 1-.358-2.503Zm2.98 1.708a1.983 1.983 0 0 0 .715 1.63 2.673 2.673 0 0 0 1.788.555 2.902 2.902 0 0 0 1.787-.556 1.925 1.925 0 0 0 .716-1.629V9.852a1.925 1.925 0 0 0-.716-1.629 2.901 2.901 0 0 0-1.787-.556 2.904 2.904 0 0 0-1.788.557 1.98 1.98 0 0 0-.715 1.628v3.377ZM123.513 17.36V5.714h2.86V7.38a3.847 3.847 0 0 1 1.272-1.47 3.306 3.306 0 0 1 1.946-.516 3.627 3.627 0 0 1 2.066.556c.574.388.996.964 1.192 1.629a3.727 3.727 0 0 1 3.536-2.185 3.312 3.312 0 0 1 2.701 1.152c.648.914.97 2.02.914 3.139v7.627h-2.86v-7.39c0-1.43-.557-2.144-1.629-2.144h-.04a2.11 2.11 0 0 0-1.669.794 3.133 3.133 0 0 0-.635 2.066v6.754h-2.861v-7.47c0-1.43-.556-2.144-1.668-2.144h-.04a2.11 2.11 0 0 0-1.668.794 3.361 3.361 0 0 0-.636 2.066v6.754h-2.781v-.032ZM47.792 35.874v-11.64h2.86v1.668a3.85 3.85 0 0 1 1.272-1.47 3.31 3.31 0 0 1 1.947-.516 3.626 3.626 0 0 1 2.065.556c.575.388.996.964 1.192 1.629a3.727 3.727 0 0 1 3.536-2.185 3.313 3.313 0 0 1 2.701 1.152c.648.914.97 2.02.914 3.138v7.628h-2.86v-7.39c0-1.43-.556-2.144-1.63-2.144h-.039a2.109 2.109 0 0 0-1.668.794 3.13 3.13 0 0 0-.636 2.066v6.754h-2.86v-7.47c0-1.43-.557-2.144-1.669-2.144h-.04a2.11 2.11 0 0 0-1.668.794 3.365 3.365 0 0 0-.636 2.066v6.754h-2.78v-.04ZM66.98 32.577a3.264 3.264 0 0 1 .994-2.424c.636-.675 1.59-1.072 2.82-1.191l3.219-.279v-.755a1.653 1.653 0 0 0-.477-1.31 1.963 1.963 0 0 0-1.35-.398 2.355 2.355 0 0 0-1.431.437 1.463 1.463 0 0 0-.556 1.232h-2.86c0-.58.135-1.151.397-1.669a3.742 3.742 0 0 1 1.033-1.192 4.637 4.637 0 0 1 1.549-.715 7.465 7.465 0 0 1 1.947-.238 4.962 4.962 0 0 1 3.297 1.033 3.714 3.714 0 0 1 1.232 2.98v5.72h1.946v2.225h-4.489l-.04-1.788h-.119a3.835 3.835 0 0 1-1.35 1.51 3.973 3.973 0 0 1-2.186.556 3.576 3.576 0 0 1-1.47-.278 3.226 3.226 0 0 1-1.152-.755 4.37 4.37 0 0 1-.794-1.112 11.93 11.93 0 0 1-.16-1.59Zm2.98.318a.873.873 0 0 0 .477.794c.383.19.805.285 1.232.278a2.045 2.045 0 0 0 1.708-.755c.43-.525.657-1.188.636-1.867v-.437l-3.417.318c-.437.04-.636.278-.636.755v.913ZM80.806 35.874v-11.64h6.515v2.225h-3.655v9.415h-2.86ZM88.886 32.18h2.86c.12 1.191.835 1.747 2.107 1.747.482.013.96-.096 1.39-.317a1.013 1.013 0 0 0 .596-.994.974.974 0 0 0-.477-.913 3.406 3.406 0 0 0-1.271-.437l-2.026-.437c-1.947-.437-2.94-1.55-2.94-3.338a3.114 3.114 0 0 1 .318-1.39c.21-.428.508-.807.874-1.112.431-.33.915-.585 1.43-.755a5.663 5.663 0 0 1 1.907-.278 5.284 5.284 0 0 1 3.258.953 3.575 3.575 0 0 1 1.35 2.9h-2.86a1.691 1.691 0 0 0-.517-1.231 1.768 1.768 0 0 0-1.231-.398c-.42-.009-.833.102-1.192.318a1.064 1.064 0 0 0-.477.914 1.055 1.055 0 0 0 .358.874c.265.21.58.347.914.397l2.304.477c.427.072.842.206 1.231.397.364.155.7.37.993.636.29.266.52.591.676.953.17.416.251.863.238 1.312-.001.494-.11.981-.318 1.43-.212.46-.54.857-.953 1.152-.453.35-.964.62-1.51.794a6.502 6.502 0 0 1-2.066.278c-1.549 0-2.74-.357-3.615-1.032a3.627 3.627 0 0 1-1.35-2.9ZM101.266 30.868v-2.344H140v2.305h-38.734v.04Z"/><path fill="#C6302C" d="M19.07 38.139c10.53 0 19.069-8.538 19.069-19.07C38.139 8.538 29.6 0 19.069 0 8.538 0 0 8.538 0 19.07 0 29.6 8.538 38.138 19.07 38.138Z"/><path fill="#000" d="M19.07 36.947c9.873 0 17.877-8.004 17.877-17.878 0-9.873-8.004-17.877-17.878-17.877-9.873 0-17.877 8.004-17.877 17.877 0 9.874 8.004 17.878 17.877 17.878Z"/><path fill="#fff" d="M19.065 12.534a.397.397 0 0 0-.397.238c-.199.437.357 1.43.357 1.47l.04.04.04-.04c.04-.04.556-1.033.357-1.47a.353.353 0 0 0-.397-.238Z"/><path fill="#fff" d="m20.595 11.7-.437-.676c.07-.433.11-.871.119-1.31a4.795 4.795 0 0 0-.278-1.63v-.04c-.04-.079-.04-.118-.08-.198a3.917 3.917 0 0 0-.85-1.231c-.374.35-.678.768-.898 1.231-.04.08-.04.12-.08.199v.04a4.795 4.795 0 0 0-.277 1.628c-.01.454.03.907.119 1.351l-.437.636a.424.424 0 0 0 0 .357c.08.239.517 1.351.517 1.351h.04a.04.04 0 0 0 .039-.04s-.12-1.072.318-1.231h.08v.04c0 .079.039.158.118.158h.914c.08 0 .12-.08.12-.159v-.04h.119c.437.16.317 1.232.317 1.232a.04.04 0 0 0 .04.04h.04s.437-1.112.516-1.35a.886.886 0 0 0-.08-.358Z"/><path fill="#E74136" d="M19.07 36.947a17.843 17.843 0 0 0 13.836-6.56 14.97 14.97 0 0 0-13.837-9.256 14.97 14.97 0 0 0-13.841 9.257 17.845 17.845 0 0 0 13.841 6.559Z"/><path fill="#fff" d="M12.753 35.755a16.847 16.847 0 0 0 6.316 1.192 18.032 18.032 0 0 0 6.317-1.153c-3.734-4.012-6.317-12.99-6.317-20.34 0 7.31-2.582 16.288-6.316 20.3Z"/></g><defs><clipPath id="a"><path fill="#fff" d="M0 0h140v38.139H0z"/></clipPath></defs></svg>