<svg xmlns="http://www.w3.org/2000/svg" xml:space="preserve" id="Layer_1" x="0" y="0" style="enable-background:new 0 0 522 295" version="1.1" viewBox="0 0 522 295"><style>.st0{fill:#edebe8}.st1{fill:#ecece9}.st2{fill:#333030}.st5{fill:#ee3e2b}.st6{fill:#fff}.st7{fill:#dad8d2}.st13{fill:#6d6767}</style><path d="M12 271h498c6.6 0 12 5.4 12 12s-5.4 12-12 12H12c-6.6 0-12-5.4-12-12s5.4-12 12-12z" class="st0"/><path d="M169 1h172c8.3 0 15 6.7 15 15v223c0 8.3-6.7 15-15 15H169c-8.3 0-15-6.7-15-15V16c0-8.3 6.7-15 15-15z" class="st1"/><path d="M341 255H169c-8.8 0-16-7.2-16-16V16c0-8.8 7.2-16 16-16h172c8.8 0 16 7.2 16 16v223c0 8.8-7.2 16-16 16zM169 2c-7.7 0-14 6.3-14 14v223c0 7.7 6.3 14 14 14h172c7.7 0 14-6.3 14-14V16c0-7.7-6.3-14-14-14H169z" class="st2"/><defs><filter id="Adobe_OpacityMaskFilter" width="224" height="291" x="143" y="-18" filterUnits="userSpaceOnUse"><feColorMatrix values="1 0 0 0 0 0 1 0 0 0 0 0 1 0 0 0 0 0 1 0"/></filter></defs><mask id="a_00000060011494250456849890000018139291561818957953_" width="224" height="291" x="143" y="-18" maskUnits="userSpaceOnUse"><path d="M155 16c0-7.7 6.3-14 14-14h172c7.7 0 14 6.3 14 14v223c0 7.7-6.3 14-14 14H169c-7.7 0-14-6.3-14-14V16z" style="fill:#fff;filter:url(#Adobe_OpacityMaskFilter)"/></mask><path d="M143 8c0-14.4 11.6-26 26-26h172c14.4 0 26 11.6 26 26l-24 14H167L143 8zm224 239c0 14.4-11.6 26-26 26H169c-14.4 0-26-11.6-26-26l24-14h176l24 14zm-198 26c-14.4 0-26-11.6-26-26V8c0-14.4 11.6-26 26-26v40h-2v211h2v40zM341-18c14.4 0 26 11.6 26 26v239c0 14.4-11.6 26-26 26v-40h2V22h-2v-40z" style="mask:url(#a_00000060011494250456849890000018139291561818957953_);fill:#dad8d2"/><path d="M162.1 235V25c0-4.3 3.4-7.6 7.6-7.6h170.6c4.3 0 7.6 3.5 7.6 7.6v210c0 4.3-3.5 7.6-7.6 7.6H169.8c-4.3.1-7.7-3.3-7.7-7.6z" class="st1"/><path d="M186.8 230.5c5.4 0 9.8-4.4 9.8-9.8s-4.4-9.8-9.8-9.8-9.8 4.4-9.8 9.8 4.4 9.8 9.8 9.8z" class="st5"/><path d="M186.7 230c5.1 0 9.2-4.1 9.2-9.2s-4.1-9.2-9.2-9.2-9.2 4.1-9.2 9.2c0 5 4.1 9.2 9.2 9.2z" class="st2"/><path d="M186.8 217.4c-.1 0-.2 0-.2.1-.1.2.2.7.2.8 0 0 .3-.5.2-.8 0 0 0-.1-.1-.1h-.1z" class="st6"/><path d="m187.5 217-.2-.3c0-.2.1-.4.1-.7 0-.3 0-.6-.1-.8v-.1c-.1-.2-.3-.5-.4-.6-.2.2-.3.4-.5.6v.1c-.1.3-.1.6-.1.8 0 .2 0 .5.1.7l-.2.3v.2c0 .1.3.7.3.7s-.1-.6.2-.6c0 0 0 .1.1.1h.5s.1 0 .1-.1h.1c.2.1.2.6.2.6s.2-.6.3-.7c-.4-.1-.4-.1-.5-.2z" class="st6"/><path d="M186.7 230c2.8 0 5.4-1.2 7.1-3.4-1.6-3.9-6.1-5.8-10-4.2-.5.2-.9.4-1.3.7-1.3.8-2.2 2-2.8 3.5 1.7 2.2 4.3 3.4 7 3.4z" class="st5"/><path d="M183.5 229.3c1 .4 2.1.6 3.2.6s2.2-.2 3.2-.6c-1.9-2.1-3.2-6.7-3.2-10.4.1 3.8-1.3 8.4-3.2 10.4z" class="st6"/><path d="M180.6 166.6c-4 0-7.3-3.2-7.3-7.2V37.3c0-4 3.2-7.3 7.2-7.3h149c4 0 7.3 3.2 7.3 7.2v122c0 4-3.2 7.3-7.2 7.3h-.1l-148.9.1z" class="st7"/><path d="M194.1 158.7c-7.1 0-12.9-5.8-12.9-12.9V50.9c0-7.1 5.8-12.9 12.9-12.9H316c7.1 0 12.9 5.8 12.9 12.9v94.8c0 7.1-5.8 12.9-12.9 12.9l-121.9.1z" class="st2"/><path d="M316 38h-15.1c2.7 5.7 4.1 11.9 4.1 18.1 0 43.3-35.2 78.5-78.5 78.5h-27.1c-6.5 0-12.7-1.5-18.1-4.1v15.1c0 7.1 5.8 12.9 12.9 12.9h122c7.1 0 12.9-5.8 12.9-12.9V50.9C329 43.8 323.2 38 316 38z" style="opacity:.3;fill:#333030;enable-background:new"/><path d="M307.9 197.3V195h-51.5v-9h51.5v-2.3c0-.8.6-1.4 1.4-1.4h27.1c.8 0 1.4.6 1.4 1.4v13.6c0 .8-.6 1.4-1.4 1.4h-27.1c-.8.1-1.4-.5-1.4-1.4z" style="fill:#d3d1ca"/><path d="M334 188.3h-3.2v4.5h3.2v-4.5z" class="st2"/><path d="M379.6 281.3c.3-3 2-5.7 4.7-7.7 3-2.3 7.2-3.8 11.9-3.8s8.9 1.5 11.9 3.8c2.7 2.1 4.4 4.8 4.7 7.7h-33.2z" style="fill:#f2ebe1"/><path d="M413.9 282.3h-35.4l.1-1.1c.3-3.2 2.1-6.2 5.1-8.4 3.3-2.6 7.8-4 12.5-4s9.1 1.4 12.5 4c2.9 2.3 4.8 5.3 5.1 8.4l.1 1.1zm-33.1-2h30.8c-.5-2.2-2-4.3-4.1-5.9-3-2.3-7-3.6-11.3-3.6s-8.3 1.3-11.3 3.6c-2.1 1.6-3.5 3.7-4.1 5.9z" class="st2"/><path d="M167 254h176v16H167v-16z" class="st7"/><path d="M344 271H166v-18h178v18zm-176-2h174v-14H168v14z" class="st2"/><path d="M342 255H168v5h174v-5z" style="fill:#ceccc4"/><path d="M198.6 263h112v7h-112v-7zm142.5 0h13v7h-13v-7zm-21.7 0h13v7h-13v-7zm-142.5 0h13v7h-13v-7zm-21.8 0h13v7h-13v-7z" class="st7"/><path d="M355.1 271h-15v-9h15v9zm-13-2h11v-5h-11v5zm-8.7 2h-15v-9h15v9zm-13-2h11v-5h-11v5zm-8.7 2h-114v-9h114v9zm-112.1-2h110v-5h-110v5zm-8.7 2h-15v-9h15v9zm-13-2h11v-5h-11v5zm-8.8 2h-15v-9h15v9zm-13-2h11v-5h-11v5z" class="st2"/><path d="M141 269.8h227.2c.6 0 1 .4 1 1v9.5c0 .6-.4 1-1 1H141c-.6 0-1-.4-1-1v-9.5c0-.5.4-1 1-1z" class="st1"/><path d="M368.2 282.3H141c-1.1 0-2-.9-2-2v-9.5c0-1.1.9-2 2-2h227.2c1.1 0 2 .9 2 2v9.5c0 1.1-.9 2-2 2zM141 270.8v9.5h227.2v-9.5H141z" class="st2"/><path d="M202.2 53.7h12.1m12.5 0h43" style="fill:none;stroke:#fff;stroke-width:6;stroke-linecap:round;stroke-linejoin:round;stroke-miterlimit:10;stroke-opacity:5.000000e-02"/><path d="M334 189.8h-23.5v-3.6c0-.8.6-1.4 1.4-1.4h20.7c.8 0 1.4.6 1.4 1.4v3.6zm-1.4 6.5h-20.7c-.8 0-1.4-.6-1.4-1.4v-4.4H334v4.4c0 .7-.6 1.4-1.4 1.4z" class="st2"/><path d="M331.1 192.8h-71c-.4 0-.8-.3-.8-.8v-3.1c0-.4.3-.8.8-.8h71c.4 0 .8.3.8.8v3.1c-.1.5-.4.8-.8.8z" class="st2"/><path d="M255 136H113c-3.3 0-6-2.7-6-6V23c0-3.3 2.7-6 6-6h142c3.3 0 6 2.7 6 6v107.1c0 3.3-2.7 5.9-6 5.9z" class="st6"/><path d="M255 136H113c-3.3 0-6-2.7-6-6V23c0-3.3 2.7-6 6-6h142c3.3 0 6 2.7 6 6v107.1c0 3.3-2.7 5.9-6 5.9zM113 19c-2.2 0-4 1.8-4 4v107c0 2.2 1.8 4 4 4h142c2.2 0 4-1.8 4-3.9V23c0-2.2-1.8-4-4-4H113z" class="st2"/><path d="M242.9 80.5 184 62l-58.9 18.5-.2-1 57.4-18-57.4-18 .2-1L184 61l58.9-18.5.2 1-57.4 18 57.4 18z" class="st13"/><path d="M109 23c0-2.2 1.8-4 4-4h142c2.2 0 4 1.8 4 4v8H109v-8z" style="fill:#f9f8f6"/><path d="M115 27c1.1 0 2-.9 2-2s-.9-2-2-2-2 .9-2 2 .9 2 2 2z" class="st5"/><path d="M121.7 27c1.1 0 2-.9 2-2s-.9-2-2-2-2 .9-2 2 .9 2 2 2z" style="fill:#eec12b"/><path d="M128.3 27c1.1 0 2-.9 2-2s-.9-2-2-2-2 .9-2 2 .9 2 2 2z" style="fill:#79ee2b"/><path d="M244 81H124V42h120v39zm-119-1h118V43H125v37zM124 87h120v12H124V87z" class="st13"/><path d="M125 106h37v9h-37v-9zm82 0h37v21h-37v-21zm-41 0h37v9h-37v-9zm-41 11h37v2h-37v-2zm41 0h35v2h-35v-2zm-41 4h32v2h-32v-2zm41 0h34v2h-34v-2zm-41 4h36v2h-36v-2zm41 0h36v2h-36v-2z" class="st0"/><path d="M328.9 168H241c-3.3 0-6.1-2.7-6.1-6V70c0-3.3 2.7-6 6.1-6h87.9c3.3 0 6.1 2.7 6.1 6v92c0 3.4-2.7 6-6.1 6z" class="st6"/><path d="M328.9 168H241c-3.3 0-6.1-2.7-6.1-6V70c0-3.3 2.7-6 6.1-6h87.9c3.3 0 6.1 2.7 6.1 6v92c0 3.4-2.7 6-6.1 6zM241.1 66c-2.2 0-4.1 1.8-4.1 4v92c0 2.2 1.8 4 4.1 4H329c2.3 0 4.1-1.8 4.1-4V70c0-2.2-1.8-4-4.1-4h-87.9z" class="st2"/><path d="M247.5 111.5h5v5h-5v-5zm70.5 0h5v5h-5v-5zm-70.5-33h5v5h-5v-5zm70.5 0h5v5h-5v-5z" style="fill:none;stroke:#6d6767;stroke-linejoin:round;stroke-miterlimit:10"/><path d="M317.5 114.5h-65.2v-1h65.2v1zm3.5-3.1h-1V83.6h1v27.8zm-70.5 0h-1V83.6h1v27.8zm67-29.9h-65.2v-1h65.2v1z" class="st13"/><path d="M301.6 127.8v16.5h-16.5v-16.5h16.5z" style="fill:#ee3e2b;fill-opacity:.6"/><path d="M302.3 145h-18v-18h18v18zm-16.5-1.5h15v-15h-15v15z" class="st2"/><path d="M318.1 127.8v16.5h-16.5v-16.5h16.5z" style="fill:#ee3e2b;fill-opacity:.4"/><path d="M318.8 145h-18v-18h18v18zm-16.5-1.5h15v-15h-15v15z" class="st2"/><path d="M285.1 127.8v16.5h-16.5v-16.5h16.5z" style="fill:#ee3e2b;fill-opacity:.8"/><path d="M285.8 145h-18v-18h18v18zm-16.5-1.5h15v-15h-15v15z" class="st2"/><path d="M268.6 127.8v16.5h-16.5v-16.5h16.5z" class="st5"/><path d="M269.3 145h-18v-18h18v18zm-16.5-1.5h15v-15h-15v15z" class="st2"/><path d="M341.5 187.9c-.7 0-18.2-.3-18.2-19.2v-12.1c0-.6.9-1.3 1.7-1.3H361.9c2.6 0 15.4.8 15.4 16.3s-13.4 16.3-16 16.3h-19.8z" class="st5"/><path d="M361.9 156.2c2.4 0 14.4.7 14.4 15.3 0 14.6-12.5 15.3-15 15.3h-19.7c-.7 0-17.2-.3-17.2-18.2v-12c.1-.2.5-.4.7-.4H361.9m0-2H325c-1.2 0-2.7 1.1-2.7 2.3v12.1c0 20.2 19.2 20.2 19.2 20.2h19.8c2.1 0 17-.6 17-17.3s-14.3-17.3-16.4-17.3z" style="fill:#c6302c"/><path d="M345.9 169.4h-1.5c-.1-.6-.4-1.1-.9-1.5-.2-.2-.5-.3-.8-.4-.3-.1-.6-.1-.9-.1-.6 0-1.1.1-1.5.4-.4.3-.8.7-1.1 1.3-.3.6-.4 1.2-.4 2s.1 1.5.4 2c.3.6.6 1 1.1 1.3.5.3 1 .4 1.5.4.3 0 .6 0 .9-.1.3-.1.5-.2.8-.4.5-.3.8-.9.9-1.5h1.5c-.1.5-.2.9-.5 1.3-.2.4-.5.8-.9 1.1-.4.3-.8.5-1.2.7-.5.2-1 .2-1.5.2-.9 0-1.6-.2-2.3-.6-.7-.4-1.2-1-1.6-1.8-.4-.8-.6-1.7-.6-2.7 0-1.1.2-2 .6-2.7.4-.8.9-1.3 1.6-1.7.7-.4 1.4-.6 2.3-.6.5 0 1 .1 1.5.2s.9.4 1.2.7c.4.3.7.6.9 1.1.3.4.4.8.5 1.4zm1.7 6.7v-7.4h1.4v1.2h.1c.1-.4.4-.7.7-.9.3-.2.8-.4 1.2-.3h.6v1.4c-.1 0-.2 0-.3-.1h-.4c-.3 0-.6.1-.9.2-.5.3-.9.8-.9 1.5v4.5l-1.5-.1zm5.2 0v-7.4h1.4v7.4h-1.4zm.7-8.6c-.2 0-.5-.1-.6-.3-.2-.2-.3-.4-.3-.6 0-.2.1-.4.3-.6.2-.2.4-.3.6-.3.2 0 .5.1.6.3.2.2.3.4.3.6 0 .2-.1.5-.3.6-.1.2-.3.3-.6.3zm8.2 2.9-1.3.2c-.1-.2-.1-.3-.3-.5-.1-.2-.3-.3-.5-.4-.2-.1-.4-.1-.7-.1-.4 0-.8.1-1 .3-.3.2-.4.4-.4.7 0 .2.1.4.3.6.2.2.5.3.9.4l1.2.3c.7.2 1.2.4 1.5.7.3.3.5.8.5 1.3 0 .4-.1.8-.4 1.2-.3.3-.6.6-1.1.8-.5.2-1 .3-1.6.3-.8 0-1.5-.2-2-.5-.5-.4-.8-.9-1-1.5l1.4-.2c.1.4.3.6.5.8.3.2.6.3 1.1.3.5 0 .9-.1 1.1-.3.3-.2.4-.4.4-.7 0-.2-.1-.4-.3-.6-.2-.2-.4-.3-.8-.4l-1.3-.3c-.7-.2-1.2-.4-1.5-.8-.3-.3-.5-.8-.5-1.3 0-.4.1-.8.4-1.1.2-.3.6-.6 1-.8.4-.2.9-.3 1.5-.3.8 0 1.4.2 1.9.5.6.4.9.9 1 1.4z" class="st6"/><path d="m114.2 128.1 18.4 10.1-9.1 2.6-5.3 7.7z" class="st2"/><path d="m115.6 130 14.4 7.9-7.1 2.1-4.2 6-3.1-16m-2.8-3.8.8 4.2 3.1 16 .9 4.7 2.7-3.9 3.8-5.4 6.4-1.9 4.6-1.3-4.2-2.3-14.4-7.9-3.7-2.2z" class="st6"/><path d="M146.8 179.6c-.7 0-18.2-.3-18.2-19.2v-12.1c0-.6.9-1.3 1.7-1.3h26.9c2.6 0 15.4.8 15.4 16.3s-13.4 16.3-16 16.3h-9.8z" class="st13"/><path d="M157.2 148c2.4 0 14.4.7 14.4 15.3 0 14.6-12.5 15.3-15 15.3h-9.7c-.7 0-17.2-.3-17.2-18.2v-12c.1-.2.5-.4.7-.4h26.8m0-2h-26.9c-1.2 0-2.7 1.1-2.7 2.3v12.1c0 20.2 19.2 20.2 19.2 20.2h9.8c2.1 0 17-.6 17-17.3S159.2 146 157.2 146z" class="st2"/><path d="M142.2 159.2v-1.3h7.7v1.3h-3.1v8.6h-1.5v-8.6h-3.1zm12.9 5.5v-4.3h1.4v7.4h-1.4v-1.3h-.1c-.2.4-.4.7-.8 1-.4.3-.8.4-1.4.4-.5 0-.9-.1-1.3-.3-.4-.2-.7-.5-.9-.9-.2-.4-.3-.9-.3-1.5v-4.7h1.4v4.5c0 .5.1.9.4 1.2.3.3.6.4 1.1.4.3 0 .5-.1.8-.2.3-.1.5-.3.7-.6.3-.3.4-.7.4-1.1zm-2.2-5.3 1.1-2.2h1.5l-1.5 2.2h-1.1z" class="st6"/><path d="M755.3 164.1c0-.9.8-1.7 1.7-1.7h37.6c9.6 0 17.3 7.7 17.3 17.3s-7.7 17.3-17.3 17.3h-18.9c-11.3 0-20.4-9.1-20.4-20.4v-12.5z" class="st5" shape-rendering="crispEdges"/><path d="m309.5 136.4 18.4 10.1-9.1 2.6-5.3 7.7z" class="st2"/><path d="m310.9 138.3 14.4 7.9-7.1 2.1-4.2 6-3.1-16m-2.8-3.8.8 4.2 3.1 16 .9 4.7 2.7-3.9 3.8-5.4 6.4-1.9 4.6-1.3-4.2-2.3-14.4-7.9-3.7-2.2z" class="st6"/></svg>