<svg xmlns="http://www.w3.org/2000/svg" width="522" height="295" fill="none"><rect width="522" height="24" y="271" fill="#EDEBE8" rx="12"/><rect width="202" height="253" x="154" y="1" fill="#ECECE9" stroke="#333030" stroke-width="2" rx="15"/><mask id="a" fill="#fff"><path d="M155 16c0-7.732 6.268-14 14-14h172c7.732 0 14 6.268 14 14v223c0 7.732-6.268 14-14 14H169c-7.732 0-14-6.268-14-14V16Z"/></mask><path fill="#DAD8D2" d="M143 8c0-14.36 11.641-26 26-26h172c14.359 0 26 11.64 26 26l-24 14H167L143 8Zm224 239c0 14.359-11.641 26-26 26H169c-14.359 0-26-11.641-26-26l24-14h176l24 14Zm-198 26c-14.359 0-26-11.641-26-26V8c0-14.36 11.641-26 26-26v40h-2v211h2v40ZM341-18c14.359 0 26 11.64 26 26v239c0 14.359-11.641 26-26 26v-40h2V22h-2v-40Z" mask="url(#a)"/><path fill="#ECECE9" d="M162.063 235.001v-210c0-4.275 3.45-7.65 7.65-7.65h170.625c4.275 0 7.65 3.45 7.65 7.65v210c0 4.275-3.45 7.65-7.65 7.65h-170.55c-4.275.075-7.725-3.375-7.725-7.65Z"/><path fill="#EE3E2B" d="M186.75 230.5a9.75 9.75 0 0 0 9.75-9.75 9.75 9.75 0 0 0-9.75-9.75 9.75 9.75 0 0 0-9.75 9.75 9.75 9.75 0 0 0 9.75 9.75Z"/><path fill="#333030" d="M186.749 229.985a9.236 9.236 0 0 0 9.236-9.236 9.236 9.236 0 0 0-9.236-9.237 9.236 9.236 0 0 0-9.237 9.237 9.236 9.236 0 0 0 9.237 9.236Z"/><path fill="#fff" d="M186.753 217.425a.205.205 0 0 0-.204.122c-.102.224.184.734.184.754l.02.021.021-.021c.02-.02.285-.53.183-.754a.177.177 0 0 0-.079-.099c-.037-.023-.082-.031-.125-.023Z"/><path fill="#fff" d="m187.537 216.999-.224-.346c.036-.223.057-.448.061-.673a2.453 2.453 0 0 0-.143-.836v-.02c-.02-.041-.02-.062-.04-.102a2.006 2.006 0 0 0-.437-.632 2.068 2.068 0 0 0-.46.632c-.021.04-.021.061-.041.102v.02a2.453 2.453 0 0 0-.143.836c-.005.232.016.465.061.693l-.224.326a.224.224 0 0 0 0 .184c.041.122.265.693.265.693h.02a.02.02 0 0 0 .021-.021s-.061-.55.163-.632h.041v.021c0 .041.02.081.061.081h.469c.04 0 .061-.04.061-.081v-.021h.061c.224.082.163.632.163.632a.02.02 0 0 0 .006.015.02.02 0 0 0 .014.006h.021s.224-.571.265-.693a.466.466 0 0 0-.041-.184Z"/><path fill="#EE3E2B" d="M186.745 229.991a9.148 9.148 0 0 0 7.101-3.366 7.686 7.686 0 0 0-11.373-3.454 7.678 7.678 0 0 0-2.83 3.454 9.151 9.151 0 0 0 7.102 3.366Z"/><path fill="#fff" d="M183.516 229.347a8.643 8.643 0 0 0 3.241.612 9.278 9.278 0 0 0 3.242-.591c-1.917-2.059-3.242-6.667-3.242-10.438 0 3.751-1.325 8.358-3.241 10.417Z"/><path fill="#DAD8D2" d="M180.588 166.601a7.234 7.234 0 0 1-7.275-7.275V37.376a7.234 7.234 0 0 1 7.275-7.275h148.95a7.234 7.234 0 0 1 7.275 7.275v121.95a7.234 7.234 0 0 1-7.275 7.275h-148.95Z"/><path fill="#333030" d="M194.088 158.651c-7.125 0-12.9-5.775-12.9-12.9V50.876c0-7.125 5.775-12.9 12.9-12.9h121.95c7.125 0 12.9 5.775 12.9 12.9v94.8c0 7.125-5.775 12.9-12.9 12.9h-121.95v.075Z"/><path fill="#333030" d="M316.038 37.976h-15.15a41.865 41.865 0 0 1 4.125 18.15c0 43.35-35.175 78.525-78.525 78.525h-27.15c-6.525 0-12.675-1.5-18.15-4.125v15.15c0 7.125 5.775 12.9 12.9 12.9h121.95c7.125 0 12.9-5.775 12.9-12.9v-94.8c.075-7.125-5.7-12.9-12.9-12.9Z" opacity=".3"/><path fill="#D3D1CA" d="M307.939 197.349v-2.325h-51.525v-9h51.525v-2.325c0-.75.6-1.425 1.425-1.425h27.15c.75 0 1.425.6 1.425 1.425v13.65c0 .75-.6 1.425-1.425 1.425h-27.15c-.825 0-1.425-.6-1.425-1.425Z"/><path fill="#333030" d="M334.037 188.274h-3.225v4.5h3.225v-4.5Z"/><path fill="#F2EBE1" stroke="#333030" stroke-width="2" d="M379.641 281.324c.315-2.953 2.016-5.671 4.712-7.741 2.999-2.302 7.186-3.759 11.86-3.759 4.674 0 8.861 1.457 11.86 3.759 2.696 2.07 4.397 4.788 4.712 7.741h-33.144Z"/><path fill="#DAD8D2" stroke="#333030" stroke-width="2" d="M167 254h176v16H167v-16Z"/><path fill="#CECCC4" d="M342 255H168v5h174v-5Z"/><path fill="#DAD8D2" stroke="#333030" stroke-width="2" d="M198.65 263h112v7h-112v-7ZM341.149 263h13v7h-13v-7ZM319.399 263h13v7h-13v-7ZM176.9 263h13v7h-13v-7ZM155.15 263h13v7h-13v-7Z"/><path fill="#ECECE9" stroke="#333030" stroke-width="2" d="M141 269.824h227.225a1 1 0 0 1 1 1v9.5a1 1 0 0 1-1 1H141a1 1 0 0 1-1-1v-9.5a1 1 0 0 1 1-1Z"/><path stroke="#fff" stroke-linecap="round" stroke-linejoin="round" stroke-miterlimit="10" stroke-opacity=".05" stroke-width="6" d="M202.188 53.726h12.075M226.789 53.726h43.05"/><path fill="#333030" d="M334.036 189.775h-23.55v-3.6c0-.75.6-1.425 1.425-1.425h20.7c.75 0 1.425.6 1.425 1.425v3.6ZM332.611 196.299h-20.7c-.75 0-1.425-.6-1.425-1.425v-4.35h23.55v4.35c0 .75-.675 1.425-1.425 1.425Z"/><path fill="#333030" d="M331.114 192.774h-70.95c-.375 0-.75-.3-.75-.75v-3.075c0-.375.3-.75.75-.75h70.95c.375 0 .75.3.75.75v3.075c-.075.45-.375.75-.75.75Z"/><g filter="url(#b)"><path fill="#fff" d="M254.993 136H113.007c-3.304 0-6.007-2.691-6.007-5.98V22.98c0-3.289 2.703-5.98 6.007-5.98h141.986c3.304 0 6.007 2.691 6.007 5.98v107.115c0 3.289-2.703 5.905-6.007 5.905Z"/><path stroke="#333030" stroke-width="2" d="M254.993 135H113.007c-2.756 0-5.007-2.247-5.007-4.98V22.98c0-2.733 2.251-4.98 5.007-4.98h141.986c2.756 0 5.007 2.247 5.007 4.98v107.115c0 2.716-2.235 4.905-5.007 4.905Z"/></g><path stroke="#6D6767" d="m125 43 118 37M125 80l118-37"/><path fill="#F9F8F6" d="M109 23a4 4 0 0 1 4-4h142a4 4 0 0 1 4 4v8H109v-8Z"/><path fill="#EE3E2B" d="M115 27a2 2 0 1 0 0-4 2 2 0 0 0 0 4Z"/><path fill="#EEC12B" d="M121.667 27a2 2 0 1 0 0-4 2 2 0 0 0 0 4Z"/><path fill="#79EE2B" d="M128.333 27a2 2 0 1 0 0-4 2 2 0 0 0 0 4Z"/><path stroke="#6D6767" d="M124.5 42.5h119v38h-119z"/><path fill="#6D6767" d="M124 87h120v12H124z"/><path fill="#EDEBE8" d="M125 106h37v9h-37zM207 106h37v21h-37zM166 106h37v9h-37zM125 117h37v2h-37zM166 117h35v2h-35zM125 121h32v2h-32zM166 121h34v2h-34zM125 125h36v2h-36zM166 125h36v2h-36z"/><g filter="url(#c)"><path fill="#fff" d="M328.939 168h-87.878c-3.334 0-6.061-2.695-6.061-5.99V69.99c0-3.294 2.727-5.99 6.061-5.99h87.878c3.334 0 6.061 2.695 6.061 5.99v92.02c0 3.369-2.727 5.99-6.061 5.99Z"/><path stroke="#333030" stroke-width="2" d="M328.939 167h-87.878c-2.793 0-5.061-2.259-5.061-4.99V69.99c0-2.731 2.268-4.99 5.061-4.99h87.878c2.793 0 5.061 2.259 5.061 4.99v92.02c0 2.798-2.26 4.99-5.061 4.99Z"/></g><path stroke="#6D6767" stroke-linejoin="round" stroke-miterlimit="10" d="M247.5 111.5h5v5h-5v-5ZM318 111.5h5v5h-5v-5ZM247.5 78.5h5v5h-5v-5ZM318 78.5h5v5h-5v-5Z"/><path stroke="#6D6767" d="M252.25 114h65.25M252.25 81h65.25M250 83.625v27.75M320.5 83.625v27.75"/><path fill="#EE3E2B" fill-opacity=".6" stroke="#333030" stroke-width="1.5" d="M301.563 127.75v16.5h-16.5v-16.5h16.5Z"/><path fill="#EE3E2B" fill-opacity=".4" stroke="#333030" stroke-width="1.5" d="M318.063 127.75v16.5h-16.5v-16.5h16.5Z"/><path fill="#EE3E2B" fill-opacity=".8" stroke="#333030" stroke-width="1.5" d="M285.063 127.75v16.5h-16.5v-16.5h16.5Z"/><path fill="#EE3E2B" stroke="#333030" stroke-width="1.5" d="M268.563 127.75v16.5h-16.5v-16.5h16.5Z"/><g filter="url(#d)"><path fill="#333030" d="m313.754 154.25-3.131-15.959L325 146.168l-7.082 2.055-4.164 6.027Z"/><path stroke="#fff" d="m313.754 154.25-3.131-15.959L325 146.168l-7.082 2.055-4.164 6.027Z"/></g><g filter="url(#e)"><path fill="#EE3E2B" d="M323 155.95a1.7 1.7 0 0 1 1.7-1.7h37.6c9.555 0 17.3 7.745 17.3 17.3s-7.745 17.3-17.3 17.3h-18.9c-11.267 0-20.4-9.133-20.4-20.4v-12.5Z" shape-rendering="crispEdges"/><path stroke="#C6302C" stroke-width="1.7" d="M324.7 155.1h37.6c9.085 0 16.45 7.365 16.45 16.45 0 9.085-7.365 16.45-16.45 16.45h-18.9c-10.797 0-19.55-8.753-19.55-19.55v-12.5a.85.85 0 0 1 .85-.85Z" shape-rendering="crispEdges"/><path fill="#fff" d="M345.901 169.375h-1.507a2.284 2.284 0 0 0-.903-1.473 2.498 2.498 0 0 0-.768-.386 2.99 2.99 0 0 0-.893-.13c-.57 0-1.08.143-1.531.429-.447.287-.802.707-1.062 1.261-.258.554-.387 1.23-.387 2.028 0 .805.129 1.485.387 2.038.26.554.616.973 1.067 1.256.451.283.958.425 1.521.425.312 0 .609-.042.889-.125a2.58 2.58 0 0 0 .768-.382 2.31 2.31 0 0 0 .912-1.454l1.507.005c-.08.486-.236.934-.468 1.343a3.727 3.727 0 0 1-.884 1.053c-.357.293-.766.52-1.227.681a4.53 4.53 0 0 1-1.506.241c-.857 0-1.62-.203-2.29-.608-.669-.409-1.197-.994-1.584-1.754-.383-.759-.574-1.666-.574-2.719 0-1.056.193-1.962.579-2.719.386-.76.914-1.342 1.584-1.748.67-.409 1.431-.613 2.285-.613.524 0 1.014.075 1.468.227.457.148.867.367 1.231.656.364.287.665.638.903 1.053.239.412.4.884.483 1.415Zm1.67 6.675v-7.418h1.396v1.178h.077c.135-.399.374-.713.715-.942a2.042 2.042 0 0 1 1.169-.347 6.588 6.588 0 0 1 .613.033v1.382a2.712 2.712 0 0 0-.309-.054 3.016 3.016 0 0 0-.444-.033c-.342 0-.646.072-.913.217a1.623 1.623 0 0 0-.86 1.454v4.53h-1.444Zm5.22 0v-7.418h1.444v7.418h-1.444Zm.729-8.563a.92.92 0 0 1-.647-.251.819.819 0 0 1-.266-.609c0-.238.089-.441.266-.608a.906.906 0 0 1 .647-.256.89.89 0 0 1 .642.256c.181.167.271.37.271.608a.81.81 0 0 1-.271.609.902.902 0 0 1-.642.251Zm8.216 2.956-1.309.232a1.54 1.54 0 0 0-.26-.479 1.286 1.286 0 0 0-.474-.371c-.199-.097-.449-.145-.748-.145-.409 0-.75.091-1.024.275-.274.18-.411.414-.411.7 0 .248.092.448.276.599.183.151.479.275.888.372l1.179.27c.682.158 1.191.401 1.526.73.335.328.502.755.502 1.279 0 .445-.129.841-.386 1.189-.255.344-.61.615-1.068.811-.454.196-.98.295-1.579.295-.831 0-1.508-.178-2.033-.532-.525-.357-.847-.864-.966-1.521l1.396-.213c.087.364.265.64.536.826.27.184.623.276 1.057.276.474 0 .852-.099 1.135-.295.284-.2.425-.443.425-.729a.761.761 0 0 0-.26-.585c-.171-.157-.433-.277-.788-.357l-1.255-.275c-.693-.158-1.204-.409-1.536-.754-.328-.344-.493-.78-.493-1.309 0-.437.123-.821.367-1.149.245-.328.583-.584 1.015-.768.431-.187.925-.28 1.482-.28.802 0 1.433.174 1.893.522.461.344.765.806.913 1.386Z"/></g><g filter="url(#f)"><path fill="#333030" d="m118.754 141-3.131-15.959L130 132.918l-7.082 2.055-4.164 6.027Z"/><path stroke="#fff" d="m118.754 141-3.131-15.959L130 132.918l-7.082 2.055-4.164 6.027Z"/></g><g filter="url(#g)"><path fill="#6D6767" d="M128 142.7a1.7 1.7 0 0 1 1.7-1.7h27.6c9.555 0 17.3 7.745 17.3 17.3s-7.745 17.3-17.3 17.3h-8.9c-11.267 0-20.4-9.133-20.4-20.4v-12.5Z" shape-rendering="crispEdges"/><path stroke="#333030" stroke-width="1.7" d="M129.7 141.85h27.6c9.085 0 16.45 7.365 16.45 16.45 0 9.085-7.365 16.45-16.45 16.45h-8.9c-10.797 0-19.55-8.753-19.55-19.55v-12.5a.85.85 0 0 1 .85-.85Z" shape-rendering="crispEdges"/><path fill="#fff" d="M142.198 154.194v-1.285h7.655v1.285h-3.086v8.606h-1.487v-8.606h-3.082Zm12.921 5.529v-4.341h1.449v7.418h-1.42v-1.285h-.078c-.17.396-.444.726-.821.99-.373.261-.838.391-1.395.391-.477 0-.899-.104-1.266-.314a2.199 2.199 0 0 1-.859-.941c-.206-.416-.309-.929-.309-1.541v-4.718h1.444v4.544c0 .506.14.908.42 1.208.28.299.644.449 1.091.449.271 0 .54-.068.807-.203.27-.135.494-.34.671-.613.18-.274.269-.622.266-1.044Zm-2.212-5.331 1.13-2.227h1.521l-1.497 2.227h-1.154Z"/></g><defs><filter id="b" width="157" height="122" x="104" y="17" color-interpolation-filters="sRGB" filterUnits="userSpaceOnUse"><feFlood flood-opacity="0" result="BackgroundImageFix"/><feColorMatrix in="SourceAlpha" result="hardAlpha" values="0 0 0 0 0 0 0 0 0 0 0 0 0 0 0 0 0 0 127 0"/><feOffset dx="-3" dy="3"/><feComposite in2="hardAlpha" operator="out"/><feColorMatrix values="0 0 0 0 0.2 0 0 0 0 0.188235 0 0 0 0 0.188235 0 0 0 0.15 0"/><feBlend in2="BackgroundImageFix" result="effect1_dropShadow_893_7368"/><feBlend in="SourceGraphic" in2="effect1_dropShadow_893_7368" result="shape"/></filter><filter id="c" width="103" height="107" x="232" y="64" color-interpolation-filters="sRGB" filterUnits="userSpaceOnUse"><feFlood flood-opacity="0" result="BackgroundImageFix"/><feColorMatrix in="SourceAlpha" result="hardAlpha" values="0 0 0 0 0 0 0 0 0 0 0 0 0 0 0 0 0 0 127 0"/><feOffset dx="-3" dy="3"/><feComposite in2="hardAlpha" operator="out"/><feColorMatrix values="0 0 0 0 0.2 0 0 0 0 0.188235 0 0 0 0 0.188235 0 0 0 0.15 0"/><feBlend in2="BackgroundImageFix" result="effect1_dropShadow_893_7368"/><feBlend in="SourceGraphic" in2="effect1_dropShadow_893_7368" result="shape"/></filter><filter id="d" width="20.372" height="22.174" x="307.925" y="136.341" color-interpolation-filters="sRGB" filterUnits="userSpaceOnUse"><feFlood flood-opacity="0" result="BackgroundImageFix"/><feColorMatrix in="SourceAlpha" result="hardAlpha" values="0 0 0 0 0 0 0 0 0 0 0 0 0 0 0 0 0 0 127 0"/><feOffset dy="1"/><feGaussianBlur stdDeviation="1"/><feComposite in2="hardAlpha" operator="out"/><feColorMatrix values="0 0 0 0 0 0 0 0 0 0 0 0 0 0 0 0 0 0 0.25 0"/><feBlend in2="BackgroundImageFix" result="effect1_dropShadow_893_7368"/><feBlend in="SourceGraphic" in2="effect1_dropShadow_893_7368" result="shape"/></filter><filter id="e" width="73.6" height="51.6" x="317.9" y="149.15" color-interpolation-filters="sRGB" filterUnits="userSpaceOnUse"><feFlood flood-opacity="0" result="BackgroundImageFix"/><feColorMatrix in="SourceAlpha" result="hardAlpha" values="0 0 0 0 0 0 0 0 0 0 0 0 0 0 0 0 0 0 127 0"/><feOffset dx="3.4" dy="3.4"/><feGaussianBlur stdDeviation="4.25"/><feComposite in2="hardAlpha" operator="out"/><feColorMatrix values="0 0 0 0 0.933333 0 0 0 0 0.27451 0 0 0 0 0.737255 0 0 0 0.16 0"/><feBlend in2="BackgroundImageFix" result="effect1_dropShadow_893_7368"/><feBlend in="SourceGraphic" in2="effect1_dropShadow_893_7368" result="shape"/></filter><filter id="f" width="20.372" height="22.174" x="112.925" y="123.091" color-interpolation-filters="sRGB" filterUnits="userSpaceOnUse"><feFlood flood-opacity="0" result="BackgroundImageFix"/><feColorMatrix in="SourceAlpha" result="hardAlpha" values="0 0 0 0 0 0 0 0 0 0 0 0 0 0 0 0 0 0 127 0"/><feOffset dy="1"/><feGaussianBlur stdDeviation="1"/><feComposite in2="hardAlpha" operator="out"/><feColorMatrix values="0 0 0 0 0 0 0 0 0 0 0 0 0 0 0 0 0 0 0.25 0"/><feBlend in2="BackgroundImageFix" result="effect1_dropShadow_893_7368"/><feBlend in="SourceGraphic" in2="effect1_dropShadow_893_7368" result="shape"/></filter><filter id="g" width="63.6" height="51.6" x="122.9" y="135.9" color-interpolation-filters="sRGB" filterUnits="userSpaceOnUse"><feFlood flood-opacity="0" result="BackgroundImageFix"/><feColorMatrix in="SourceAlpha" result="hardAlpha" values="0 0 0 0 0 0 0 0 0 0 0 0 0 0 0 0 0 0 127 0"/><feOffset dx="3.4" dy="3.4"/><feGaussianBlur stdDeviation="4.25"/><feComposite in2="hardAlpha" operator="out"/><feColorMatrix values="0 0 0 0 0.427451 0 0 0 0 0.403922 0 0 0 0 0.403922 0 0 0 0.4 0"/><feBlend in2="BackgroundImageFix" result="effect1_dropShadow_893_7368"/><feBlend in="SourceGraphic" in2="effect1_dropShadow_893_7368" result="shape"/></filter></defs></svg>