<svg xmlns="http://www.w3.org/2000/svg" width="18" height="18" fill="none"><path fill="#333030" fill-rule="evenodd" d="M14.705 3.295a3.8 3.8 0 0 0-5.373 0L7.607 5.02a.75.75 0 1 0 1.06 1.06l1.726-1.725-.53-.53.53.53a2.3 2.3 0 0 1 3.252 3.252l-1.726 1.725a.75.75 0 0 0 1.061 1.06l1.725-1.724-.471-.472.471.472a3.8 3.8 0 0 0 0-5.373ZM6.08 8.668a.75.75 0 0 0-1.06-1.06L3.293 9.331a3.8 3.8 0 0 0 5.374 5.373l-.53-.53.53.53 1.725-1.725a.75.75 0 0 0-1.061-1.06l-1.725 1.725a2.3 2.3 0 1 1-3.252-3.252l-.53-.53.53.53L6.08 8.668Zm5.176-.863a.75.75 0 0 0-1.06-1.06l-3.45 3.45a.75.75 0 1 0 1.06 1.06l3.45-3.45Z" clip-rule="evenodd"/></svg>