<svg xmlns="http://www.w3.org/2000/svg" width="28" height="28" fill="none"><g clip-path="url(#a)"><path fill="#333030" d="M18.083 16.333h-.921l-.327-.315a7.55 7.55 0 0 0 1.832-4.935 7.583 7.583 0 1 0-15.167 0 7.583 7.583 0 0 0 7.583 7.584 7.55 7.55 0 0 0 4.935-1.832l.315.327v.921l5.834 5.822 1.738-1.738-5.822-5.834Zm-7 0a5.243 5.243 0 0 1-5.25-5.25 5.243 5.243 0 0 1 5.25-5.25 5.243 5.243 0 0 1 5.25 5.25 5.243 5.243 0 0 1-5.25 5.25Z"/></g><defs><clipPath id="a"><path fill="#fff" d="M0 0h28v28H0z"/></clipPath></defs></svg>