<svg xmlns="http://www.w3.org/2000/svg" width="28" height="28" fill="none"><g clip-path="url(#a)"><path fill="#333030" d="M3.5 19.833c0 .645.522 1.167 1.167 1.167h18.666a1.167 1.167 0 1 0 0-2.333H4.667c-.645 0-1.167.522-1.167 1.166ZM3.5 14c0 .644.522 1.167 1.167 1.167h18.666a1.167 1.167 0 1 0 0-2.333H4.667c-.645 0-1.167.522-1.167 1.166Zm1.167-7a1.167 1.167 0 1 0 0 2.333h18.666a1.167 1.167 0 1 0 0-2.333H4.667Z"/></g><defs><clipPath id="a"><path fill="#fff" d="M0 0h28v28H0z"/></clipPath></defs></svg>