<svg width="28" height="28" viewBox="0 0 28 28" fill="none" xmlns="http://www.w3.org/2000/svg">
<g clip-path="url(#clip0_173_1397)">
<path d="M3.5 19.8333C3.5 20.4777 4.02233 21 4.66667 21H23.3333C23.9777 21 24.5 20.4777 24.5 19.8333V19.8333C24.5 19.189 23.9777 18.6667 23.3333 18.6667H4.66667C4.02233 18.6667 3.5 19.189 3.5 19.8333V19.8333ZM3.5 14C3.5 14.6443 4.02233 15.1667 4.66667 15.1667H23.3333C23.9777 15.1667 24.5 14.6443 24.5 14V14C24.5 13.3557 23.9777 12.8333 23.3333 12.8333H4.66667C4.02233 12.8333 3.5 13.3557 3.5 14V14ZM4.66667 7C4.02233 7 3.5 7.52233 3.5 8.16667V8.16667C3.5 8.811 4.02233 9.33333 4.66667 9.33333H23.3333C23.9777 9.33333 24.5 8.811 24.5 8.16667V8.16667C24.5 7.52233 23.9777 7 23.3333 7H4.66667Z" fill="#333030"/>
</g>
<defs>
<clipPath id="clip0_173_1397">
<rect width="28" height="28" fill="white"/>
</clipPath>
</defs>
</svg>
